<svg xmlns="http://www.w3.org/2000/svg" id="icons" style="display:none;">
	<symbol id="federate" viewBox="0 0 24 24">
		<path fill-rule="evenodd" clip-rule="evenodd" d="M18.5683 12C17.6652 10.7327 16.657 9.54368 15.5544 8.44564C14.4563 7.34296 13.2673 6.33475 12 5.43172C10.7327 6.33475 9.54368 7.34296 8.44564 8.44564C7.34296 9.54368 6.33475 10.7327 5.43172 12C6.27129 13.1852 7.28054 14.3905 8.44564 15.5544C9.60948 16.7195 10.8148 17.7287 12 18.5683C13.2673 17.6652 14.4563 16.657 15.5544 15.5544C16.657 14.4563 17.6652 13.2673 18.5683 12V12ZM20.0011 9.69997C21.5923 6.74638 21.9706 4.19498 20.8872 3.11284C19.805 2.02944 17.2524 2.40775 14.2988 3.99766C15.3281 4.78947 16.3474 5.68183 17.3328 6.6672C18.2875 7.61961 19.1792 8.63309 20.0023 9.70123L20.0011 9.69997ZM9.70123 20.0023C8.63309 19.1792 7.61961 18.2875 6.6672 17.3328C5.71253 16.3804 4.82081 15.3669 3.99766 14.2988C2.40775 17.2524 2.02944 19.8038 3.11284 20.8872C4.19498 21.9706 6.74764 21.5923 9.70123 20.0023ZM21.5872 12C24.2178 16.3009 24.8777 20.451 22.6643 22.6643C20.4523 24.8777 16.3009 24.2178 12 21.5872C7.69907 24.2178 3.54896 24.8777 1.33566 22.6643C-0.87765 20.4523 -0.217805 16.3009 2.41277 12C-0.217805 7.69907 -0.87765 3.54896 1.33566 1.33566C3.54771 -0.87765 7.69907 -0.217805 12 2.41277C16.3009 -0.217805 20.451 -0.87765 22.6643 1.33566C24.8777 3.54771 24.2178 7.69907 21.5872 12ZM20.0023 14.3C19.2105 15.3281 18.3182 16.3474 17.3328 17.3328C16.3804 18.2875 15.3669 19.1792 14.2988 20.0023C17.2524 21.5923 19.8038 21.9706 20.8872 20.8872C21.9706 19.805 21.5923 17.2524 20.0023 14.2988V14.3ZM3.99766 9.69997C4.78947 8.67187 5.68183 7.65257 6.6672 6.6672C7.61961 5.71253 8.63309 4.82081 9.70123 3.99766C6.74638 2.40775 4.19498 2.02944 3.11284 3.11409C2.02944 4.19624 2.40775 6.74889 3.99766 9.70248V9.69997ZM12 10.7432C12.3333 10.7432 12.653 10.8756 12.8887 11.1113C13.1244 11.347 13.2568 11.6667 13.2568 12C13.2568 12.3333 13.1244 12.653 12.8887 12.8887C12.653 13.1244 12.3333 13.2568 12 13.2568C11.6667 13.2568 11.347 13.1244 11.1113 12.8887C10.8756 12.653 10.7432 12.3333 10.7432 12C10.7432 11.6667 10.8756 11.347 11.1113 11.1113C11.347 10.8756 11.6667 10.7432 12 10.7432V10.7432Z" />
	</symbol>
	<symbol id="influence" viewBox="0 0 24 24">
		<<path fill-rule="evenodd" clip-rule="evenodd" d="M21.7407 10.7564C21.5183 9.02039 20.8365 7.37527 19.7656 5.991C18.6947 4.60672 17.2736 3.53348 15.6491 2.88218C16.7945 5.09127 17.4545 8.36945 17.4545 12C17.4545 12.1658 17.4535 12.3305 17.4502 12.4953C19.608 12.0175 21.2269 11.3324 21.7407 10.7564V10.7564ZM21.732 13.3047C20.5756 13.9069 19.0527 14.4098 17.3225 14.7556C17.0771 17.268 16.4956 19.4847 15.6491 21.1178C17.2637 20.4703 18.6776 19.4059 19.7463 18.0332C20.815 16.6605 21.5002 15.0288 21.732 13.3047V13.3047ZM2.29418 13.4902C2.55424 15.1781 3.24954 16.7693 4.31158 18.1068C5.37363 19.4443 6.76578 20.482 8.35091 21.1178C7.51527 19.5044 6.93709 17.3215 6.68618 14.8484C4.93418 14.5429 3.432 14.0825 2.29418 13.4902ZM2.25382 10.8076C2.57127 11.2156 3.456 11.736 4.80873 12.1604C5.34218 12.3284 5.92582 12.4756 6.552 12.6C6.54779 12.4 6.54561 12.2 6.54545 12C6.54545 8.36945 7.20655 5.09127 8.35091 2.88218C6.71829 3.53673 5.29123 4.61739 4.21859 6.01143C3.14596 7.40547 2.46707 9.0618 2.25273 10.8076H2.25382ZM15.2575 12.8782C15.2684 12.5891 15.2727 12.2956 15.2727 12C15.2727 6.528 13.5338 2.18182 12 2.18182C10.4662 2.18182 8.72727 6.528 8.72727 12C8.72727 12.3131 8.73273 12.6218 8.74364 12.9273C9.76691 13.0342 10.86 13.0909 12 13.0909C13.1215 13.0909 14.2222 13.0113 15.2575 12.8782ZM15.0829 15.1036C14.0858 15.2127 13.0505 15.2727 12 15.2727C10.9309 15.2727 9.90109 15.2269 8.92255 15.1385C9.41782 19.044 10.7738 21.8182 12 21.8182C13.2295 21.8182 14.5898 19.0276 15.0818 15.1025L15.0829 15.1036ZM12 0C18.6273 0 24 5.37273 24 12C24 18.6273 18.6273 24 12 24C5.37273 24 0 18.6273 0 12C0 5.37273 5.37273 0 12 0Z" />
	</symbol>
	<symbol id="tool" viewBox="0 0 24 28">
		<path fill-rule="evenodd" clip-rule="evenodd" d="M24 6.928V20.784L12 27.7133L0 20.784V6.928L12 0L24 6.928ZM12 3.08L2.66667 8.468V19.2453L12 24.6333L21.3333 19.2453V8.46667L12 3.07733V3.08ZM12 20.52C10.2319 20.52 8.5362 19.8176 7.28596 18.5674C6.03571 17.3171 5.33333 15.6214 5.33333 13.8533C5.33333 12.0852 6.03571 10.3895 7.28596 9.13929C8.5362 7.88905 10.2319 7.18667 12 7.18667C13.7681 7.18667 15.4638 7.88905 16.714 9.13929C17.9643 10.3895 18.6667 12.0852 18.6667 13.8533C18.6667 15.6214 17.9643 17.3171 16.714 18.5674C15.4638 19.8176 13.7681 20.52 12 20.52V20.52ZM12 17.8533C13.0609 17.8533 14.0783 17.4319 14.8284 16.6818C15.5786 15.9316 16 14.9142 16 13.8533C16 12.7925 15.5786 11.7751 14.8284 11.0249C14.0783 10.2748 13.0609 9.85333 12 9.85333C10.9391 9.85333 9.92172 10.2748 9.17157 11.0249C8.42143 11.7751 8 12.7925 8 13.8533C8 14.9142 8.42143 15.9316 9.17157 16.6818C9.92172 17.4319 10.9391 17.8533 12 17.8533V17.8533Z" />
	</symbol>
</svg>