<svg xmlns="http://www.w3.org/2000/svg" id="icons" style="display:none;">
	<symbol id="federate" viewBox="0 0 30 30">
		<path fill-rule="evenodd" clip-rule="evenodd" d="M24.1963 16.409L22.7667 11.671C23.5613 11.2974 24.2538 10.7374 24.7852 10.0384C25.3166 9.33952 25.6711 8.52248 25.8186 7.65696C25.966 6.79144 25.9021 5.9031 25.6321 5.06765C25.3621 4.2322 24.8941 3.47441 24.268 2.85886C23.642 2.24332 22.8763 1.78827 22.0364 1.53249C21.1965 1.27672 20.3072 1.22781 19.4443 1.38993C18.5814 1.55205 17.7705 1.92039 17.0807 2.46356C16.3909 3.00673 15.8426 3.70863 15.4827 4.50943L7.99438 2.90285C7.78226 2.20101 7.38514 1.56921 6.84469 1.07375C6.30425 0.578282 5.64039 0.237426 4.92281 0.086949C4.20523 -0.0635277 3.46037 -0.0180766 2.7664 0.218532C2.07244 0.455141 1.45496 0.874184 0.97876 1.43168C0.502563 1.98918 0.185207 2.66458 0.0599996 3.38701C-0.0652082 4.10943 0.00634825 4.85223 0.267159 5.53747C0.52797 6.2227 0.968419 6.8251 1.54228 7.28145C2.11615 7.73779 2.80227 8.03126 3.52864 8.13104L5.89766 17.0489C5.41207 17.3654 4.99941 17.7816 4.6871 18.2699C4.37478 18.7582 4.16997 19.3074 4.08627 19.8809C4.00257 20.4545 4.0419 21.0393 4.20165 21.5965C4.36139 22.1536 4.6379 22.6704 5.01278 23.1125C5.38766 23.5546 5.85234 23.9118 6.37594 24.1604C6.89953 24.409 7.47004 24.5434 8.04956 24.5545C8.62908 24.5656 9.20432 24.4533 9.73708 24.225C10.2698 23.9966 10.7479 23.6575 11.1395 23.2302L16.4493 24.3057C16.6546 25.5437 17.1979 26.7008 18.0195 27.6493C18.841 28.5979 19.9087 29.3009 21.1047 29.6807C22.3007 30.0605 23.5784 30.1023 24.7966 29.8016C26.0149 29.5009 27.1264 28.8693 28.0082 27.9766C28.8901 27.0839 29.508 25.9648 29.7938 24.7429C30.0796 23.5211 30.0222 22.244 29.6278 21.0528C29.2333 19.8615 28.5174 18.8025 27.5589 17.9926C26.6004 17.1827 25.4367 16.6535 24.1963 16.4635V16.409ZM20.4249 4.04652C20.9635 4.04652 21.49 4.20622 21.9378 4.50543C22.3856 4.80464 22.7346 5.22991 22.9407 5.72748C23.1468 6.22505 23.2007 6.77255 23.0956 7.30077C22.9906 7.82898 22.7312 8.31417 22.3504 8.695C21.9696 9.07582 21.4844 9.33516 20.9562 9.44023C20.428 9.54529 19.8805 9.49137 19.3829 9.28527C18.8853 9.07917 18.46 8.73016 18.1608 8.28236C17.8616 7.83456 17.7019 7.30809 17.7019 6.76953C17.7019 6.04734 17.9888 5.35474 18.4995 4.84407C19.0101 4.33341 19.7028 4.04652 20.4249 4.04652ZM2.72535 4.04652C2.72535 3.77724 2.8052 3.514 2.9548 3.29011C3.10441 3.06621 3.31704 2.8917 3.56583 2.78865C3.81461 2.6856 4.08836 2.65864 4.35247 2.71117C4.61658 2.76371 4.85917 2.89338 5.04958 3.08379C5.23999 3.2742 5.36967 3.5168 5.4222 3.7809C5.47473 4.04501 5.44777 4.31876 5.34472 4.56754C5.24167 4.81633 5.06716 5.02897 4.84327 5.17857C4.61937 5.32818 4.35613 5.40803 4.08685 5.40803C3.72576 5.40803 3.37945 5.26458 3.12412 5.00925C2.86879 4.75392 2.72535 4.40761 2.72535 4.04652ZM8.17138 21.7461C7.90209 21.7461 7.63886 21.6663 7.41496 21.5167C7.19106 21.3671 7.01656 21.1544 6.91351 20.9056C6.81046 20.6568 6.78349 20.3831 6.83603 20.119C6.88856 19.8549 7.01823 19.6123 7.20864 19.4219C7.39905 19.2315 7.64165 19.1018 7.90576 19.0493C8.16986 18.9967 8.44362 19.0237 8.6924 19.1267C8.94118 19.2298 9.15382 19.4043 9.30343 19.6282C9.45303 19.8521 9.53288 20.1153 9.53288 20.3846C9.53288 20.7457 9.38944 21.092 9.13411 21.3473C8.87877 21.6027 8.53247 21.7461 8.17138 21.7461ZM8.5526 16.3001L6.19719 7.53198C6.92564 7.089 7.50065 6.4332 7.84461 5.6531L14.9789 7.20522C15.0818 8.51598 15.6554 9.74529 16.5938 10.6662C17.5322 11.5871 18.7721 12.1374 20.0846 12.2156L21.4461 16.5996C20.2742 16.9157 19.2082 17.5393 18.3583 18.4059C17.5085 19.2724 16.9058 20.3505 16.6127 21.5283L12.2559 20.6297C12.2626 20.5481 12.2626 20.4662 12.2559 20.3846C12.2604 19.3642 11.8827 18.3792 11.1974 17.6233C10.512 16.8673 9.56851 16.3953 8.5526 16.3001ZM23.148 27.1921C22.3401 27.1921 21.5504 26.9526 20.8787 26.5038C20.207 26.055 19.6835 25.417 19.3743 24.6707C19.0652 23.9244 18.9843 23.1031 19.1419 22.3108C19.2995 21.5184 19.6885 20.7907 20.2598 20.2194C20.831 19.6482 21.5588 19.2592 22.3511 19.1016C23.1434 18.944 23.9647 19.0249 24.711 19.334C25.4574 19.6432 26.0953 20.1667 26.5441 20.8384C26.9929 21.5101 27.2325 22.2998 27.2325 23.1076C27.2325 24.1909 26.8021 25.2298 26.0361 25.9958C25.2702 26.7618 24.2312 27.1921 23.148 27.1921Z" />
	</symbol>
	<symbol id="influence" viewBox="0 0 30 28">
		<path d="M16.3231 12.9443H20.5399C21.4926 12.9633 22.4086 13.3151 23.1291 13.9387C23.8496 14.5623 24.3291 15.4184 24.4846 16.3585C24.5053 16.7209 24.5053 17.0843 24.4846 17.4467V17.7187H25.8448C26.225 17.7333 26.603 17.7834 26.9738 17.8684C27.7433 18.0822 28.4331 18.517 28.9577 19.1191C29.4824 19.7211 29.8189 20.4639 29.9255 21.2554C30.0503 22.2245 30.0181 23.2074 29.8303 24.1663C29.6053 25.0505 29.0904 25.8338 28.368 26.391C27.6455 26.9483 26.7572 27.2473 25.8448 27.2404H20.4039C19.4034 27.2481 18.435 26.8879 17.6826 26.2283C16.9303 25.5688 16.4465 24.6558 16.3231 23.663C16.1735 22.7349 16.1735 21.7889 16.3231 20.8609C16.5185 20.0204 16.9753 19.2635 17.6279 18.699C18.2804 18.1344 19.0951 17.7912 19.955 17.7187H21.7641C21.8437 17.2155 21.7578 16.6999 21.5192 16.2497C21.3954 16.0757 21.2324 15.9334 21.0434 15.8341C20.8543 15.7349 20.6446 15.6815 20.4311 15.6784H9.52193C9.17708 15.6775 8.84478 15.8077 8.59225 16.0425C8.33973 16.2774 8.18583 16.5994 8.16169 16.9434V17.7187H9.95721C10.8234 17.8131 11.6366 18.1822 12.2779 18.7721C12.9192 19.362 13.3548 20.1416 13.521 20.9969C13.5712 21.2934 13.594 21.594 13.589 21.8947C13.623 22.4836 13.623 23.074 13.589 23.663C13.4748 24.4979 13.1048 25.2769 12.53 25.8931C11.9553 26.5093 11.2038 26.9324 10.3789 27.1044C10.0967 27.1694 9.81037 27.2149 9.52193 27.2404H4.17619C3.43838 27.2576 2.70971 27.0745 2.06777 26.7104C1.42582 26.3463 0.894626 25.8149 0.530743 25.1729C0.175576 24.5619 -0.00772831 23.8663 0.000249739 23.1597V21.6362C0.0336014 20.6557 0.419075 19.7201 1.08607 19.0006C1.75306 18.2812 2.65692 17.8261 3.63209 17.7187H5.44121V16.6714C5.5225 15.7911 5.88741 14.9611 6.48106 14.3061C7.0747 13.6512 7.86497 13.2067 8.73299 13.0395C9.01994 12.9848 9.31143 12.9575 9.60355 12.9579H13.6027V10.9175C13.6071 10.8782 13.5972 10.8386 13.5747 10.8061C13.5522 10.7736 13.5186 10.7503 13.4802 10.7407C12.4612 10.4737 11.5456 9.90704 10.8521 9.11407C10.1585 8.3211 9.71887 7.33828 9.58994 6.29272C9.43678 5.49773 9.47402 4.67777 9.69862 3.89994C9.92323 3.12211 10.3288 2.40851 10.8822 1.81753C11.4484 1.16849 12.1641 0.667076 12.9675 0.356614C13.7709 0.0461524 14.6379 -0.0640203 15.4934 0.0356154C16.6767 0.1515 17.7894 0.651789 18.6615 1.45997C19.5335 2.26815 20.1169 3.33972 20.3222 4.5108C20.509 5.61949 20.3477 6.75881 19.8605 7.7721C19.3734 8.78538 18.5843 9.62287 17.6018 10.1694C17.217 10.3592 16.8219 10.5273 16.4183 10.6727C16.3503 10.6727 16.2959 10.6727 16.2959 10.8087V12.8219C16.2959 12.8219 16.3231 12.9035 16.3231 12.9443ZM6.80145 24.5199H9.52193C9.88269 24.5199 10.2287 24.3766 10.4838 24.1215C10.7389 23.8664 10.8822 23.5205 10.8822 23.1597V21.7995C10.8822 21.4387 10.7389 21.0927 10.4838 20.8376C10.2287 20.5825 9.88269 20.4392 9.52193 20.4392H4.08097C3.72021 20.4392 3.37423 20.5825 3.11913 20.8376C2.86404 21.0927 2.72073 21.4387 2.72073 21.7995V23.0509C2.70448 23.2467 2.73086 23.4438 2.79806 23.6285C2.86526 23.8132 2.97169 23.9811 3.11001 24.1207C3.24834 24.2603 3.41527 24.3683 3.59932 24.4372C3.78338 24.5062 3.98018 24.5344 4.17619 24.5199H6.80145ZM23.1243 24.5199H25.9264C26.2729 24.4991 26.5982 24.3467 26.8359 24.0938C27.0736 23.8409 27.2057 23.5068 27.2051 23.1597V21.7995C27.2051 21.4387 27.0617 21.0927 26.8066 20.8376C26.5516 20.5825 26.2056 20.4392 25.8448 20.4392H20.4039C20.0818 20.434 19.7683 20.5432 19.5192 20.7474C19.2701 20.9517 19.1016 21.2377 19.0436 21.5546C19.0303 21.7448 19.0303 21.9357 19.0436 22.1259V23.0917C19.0344 23.276 19.0627 23.4602 19.127 23.6331C19.1912 23.8061 19.2899 23.9642 19.4171 24.0978C19.5444 24.2314 19.6975 24.3377 19.8671 24.4103C20.0367 24.4829 20.2194 24.5202 20.4039 24.5199H23.1243ZM17.6834 5.47658C17.6834 4.93852 17.5238 4.41254 17.2249 3.96516C16.926 3.51778 16.5011 3.16909 16.004 2.96318C15.5069 2.75727 14.9599 2.7034 14.4322 2.80837C13.9044 2.91334 13.4197 3.17244 13.0392 3.55291C12.6588 3.93337 12.3997 4.41811 12.2947 4.94584C12.1897 5.47356 12.2436 6.02056 12.4495 6.51766C12.6554 7.01476 13.0041 7.43964 13.4515 7.73857C13.8989 8.0375 14.4248 8.19705 14.9629 8.19705C15.6844 8.19705 16.3764 7.91043 16.8866 7.40025C17.3967 6.89006 17.6834 6.19809 17.6834 5.47658Z" />
	</symbol>
	<symbol id="tool" viewBox="0 0 24 30">
		<path d="M4 14.6703H8V25.337C7.98953 25.9314 8.11172 26.5208 8.35766 27.0621C8.60361 27.6034 8.96713 28.083 9.42178 28.4662C9.87643 28.8493 10.4108 29.1262 10.9859 29.2769C11.5611 29.4275 12.1626 29.4481 12.7467 29.337C13.6973 29.1333 14.5453 28.6 15.1407 27.8314C15.7361 27.0628 16.0405 26.1084 16 25.137V14.6703H20C21.0609 14.6703 22.0783 14.2489 22.8284 13.4987C23.5786 12.7486 24 11.7312 24 10.6703V8.00364C24 6.94277 23.5786 5.92536 22.8284 5.17521C22.0783 4.42507 21.0609 4.00364 20 4.00364H16C16.0005 3.41477 15.871 2.83305 15.6208 2.30001C15.3705 1.76697 15.0056 1.29576 14.5522 0.920035C14.0988 0.544306 13.568 0.273323 12.9978 0.126437C12.4275 -0.0204487 11.8319 -0.039615 11.2533 0.0703071C10.3479 0.264875 9.53442 0.758826 8.94416 1.47246C8.3539 2.18609 8.02129 3.07778 8 4.00364H4C2.93913 4.00364 1.92172 4.42507 1.17157 5.17521C0.421427 5.92536 0 6.94277 0 8.00364V10.6703C0 11.7312 0.421427 12.7486 1.17157 13.4987C1.92172 14.2489 2.93913 14.6703 4 14.6703ZM13.3333 25.337C13.3333 25.6906 13.1929 26.0297 12.9428 26.2798C12.6928 26.5298 12.3536 26.6703 12 26.6703C11.6464 26.6703 11.3072 26.5298 11.0572 26.2798C10.8071 26.0297 10.6667 25.6906 10.6667 25.337V14.6703H13.3333V25.337ZM11.92 2.67031C12.2736 2.67031 12.6128 2.81078 12.8628 3.06083C13.1129 3.31088 13.2533 3.65002 13.2533 4.00364H10.5867C10.5867 3.65002 10.7271 3.31088 10.9772 3.06083C11.2272 2.81078 11.5664 2.67031 11.92 2.67031ZM2.66667 8.00364C2.66667 7.65002 2.80714 7.31088 3.05719 7.06083C3.30724 6.81078 3.64638 6.67031 4 6.67031H20C20.3536 6.67031 20.6928 6.81078 20.9428 7.06083C21.1929 7.31088 21.3333 7.65002 21.3333 8.00364V10.6703C21.3333 11.0239 21.1929 11.3631 20.9428 11.6131C20.6928 11.8632 20.3536 12.0036 20 12.0036H4C3.64638 12.0036 3.30724 11.8632 3.05719 11.6131C2.80714 11.3631 2.66667 11.0239 2.66667 10.6703V8.00364Z" />
	</symbol>
</svg>