<svg xmlns="http://www.w3.org/2000/svg" width="120" height="42" version="1"><path d="M3.407.477l113.355.201c1.584 0 3-.235 3 3.16l-.14 37.33H.547V3.7C.547 2.026.71.477 3.407.477z" fill="#fff"/><path d="M34.522 19.575c.004 7.53-6.097 13.637-13.627 13.642-7.53.005-13.639-6.096-13.643-13.625v-.017c-.005-7.529 6.096-13.636 13.626-13.64 7.532-.006 13.639 6.095 13.643 13.624v.017z" fill="#fff"/><path fill="#313131" d="M31.97 8.47c3.024 3.024 4.536 6.726 4.536 11.106s-1.486 8.041-4.457 10.987c-3.153 3.103-6.881 4.653-11.182 4.653-4.248 0-7.912-1.537-10.987-4.615-3.076-3.075-4.613-6.75-4.613-11.025S6.804 11.599 9.88 8.47c2.998-3.024 6.66-4.536 10.987-4.536 4.38 0 8.08 1.512 11.104 4.536zm-20.054 2.035c-2.556 2.581-3.834 5.606-3.834 9.074 0 3.469 1.266 6.467 3.795 8.995 2.53 2.53 5.542 3.796 9.037 3.796 3.494 0 6.532-1.278 9.114-3.834 2.451-2.372 3.678-5.357 3.678-8.957 0-3.572-1.247-6.603-3.737-9.093S24.46 6.75 20.914 6.75c-3.547 0-6.547 1.251-8.998 3.755zm6.727 7.549c-.39-.852-.975-1.277-1.755-1.277-1.379 0-2.067.928-2.067 2.782 0 1.857.688 2.785 2.067 2.785.91 0 1.561-.453 1.95-1.359l1.912 1.018c-.911 1.618-2.278 2.428-4.1 2.428-1.405 0-2.531-.43-3.376-1.292-.847-.862-1.27-2.05-1.27-3.563 0-1.489.437-2.67 1.309-3.544.872-.875 1.958-1.312 3.26-1.312 1.926 0 3.305.76 4.138 2.275l-2.068 1.059zm8.99 0c-.39-.852-.964-1.277-1.72-1.277-1.405 0-2.11.928-2.11 2.782 0 1.857.704 2.785 2.11 2.785.912 0 1.55-.453 1.916-1.359l1.953 1.018c-.91 1.618-2.274 2.428-4.093 2.428-1.403 0-2.527-.43-3.372-1.292-.843-.862-1.265-2.05-1.265-3.563 0-1.489.43-2.67 1.286-3.544.857-.875 1.948-1.312 3.273-1.312 1.923 0 3.3.76 4.131 2.275l-2.109 1.059z"/><path fill="#313131" d="M117.753 0H2.246A2.25 2.25 0 0 0 0 2.248v39.244c0 .28.227.508.507.508h118.985c.28 0 .508-.227.508-.507V2.247A2.25 2.25 0 0 0 117.754 0zM2.246 1.015h115.507c.68 0 1.232.553 1.232 1.233v27.244H36.428c-3.026 5.471-8.856 9.185-15.547 9.185-6.693 0-12.521-3.71-15.546-9.185h-4.32V2.248c0-.68.552-1.233 1.232-1.233z"/><path d="M86.264 37.732c.08.155.186.28.319.377.133.095.288.167.467.213.179.046.365.07.557.07.129 0 .267-.01.415-.033.148-.021.286-.063.417-.125a.9.9 0 0 0 .323-.255.636.636 0 0 0 .13-.413.581.581 0 0 0-.171-.436 1.355 1.354 0 0 0-.45-.278 4.54 4.54 0 0 0-.629-.195 16.853 16.85 0 0 1-.713-.186 6.254 6.253 0 0 1-.724-.227 2.486 2.486 0 0 1-.629-.348 1.638 1.638 0 0 1-.45-.532 1.63 1.63 0 0 1-.17-.776c0-.34.073-.635.218-.885a1.988 1.987 0 0 1 .57-.626c.234-.168.499-.291.796-.372.296-.079.593-.12.89-.12.345 0 .677.039.996.116.317.077.6.203.847.376.249.174.443.395.59.664.143.27.217.596.217.98h-1.413a1.193 1.192 0 0 0-.124-.492.827.827 0 0 0-.282-.307 1.197 1.196 0 0 0-.402-.157 2.455 2.454 0 0 0-.494-.047 1.72 1.719 0 0 0-.35.037.944.944 0 0 0-.318.13.796.796 0 0 0-.236.232.63.63 0 0 0-.093.353c0 .13.025.235.075.315.05.08.147.155.292.223.144.067.345.136.601.205.257.067.591.154 1.006.258.123.026.294.07.513.136.22.065.437.169.654.31.215.143.402.333.56.57.157.239.236.544.236.915 0 .303-.06.585-.176.844a1.827 1.826 0 0 1-.525.673 2.514 2.514 0 0 1-.862.441 4.077 4.077 0 0 1-1.192.157c-.364 0-.719-.045-1.062-.135a2.675 2.675 0 0 1-.91-.422 2.107 2.107 0 0 1-.626-.736c-.154-.296-.227-.649-.221-1.057h1.413c0 .223.04.411.119.566zm8.206-4.984l2.477 6.622h-1.513l-.501-1.476h-2.478l-.519 1.476h-1.465l2.504-6.622h1.495zm.083 4.06l-.835-2.428H93.7l-.863 2.428h1.717zm-34.557-4.06c.316 0 .605.028.865.084.26.055.483.147.669.273.186.127.33.295.432.505.101.21.153.47.153.779 0 .334-.075.61-.229.834-.15.223-.375.405-.672.547.41.117.715.323.917.616.202.295.302.649.302 1.063 0 .334-.065.623-.195.868a1.7 1.7 0 0 1-.524.598 2.321 2.321 0 0 1-.754.343 3.38 3.38 0 0 1-.87.112h-3.215v-6.622h3.121zm-.186 2.678c.26 0 .474-.061.641-.185.167-.124.25-.324.25-.6a.77.77 0 0 0-.083-.38.62.62 0 0 0-.222-.232.945.945 0 0 0-.321-.115 2.12 2.12 0 0 0-.377-.033h-1.364v1.545h1.476zm.086 2.81c.142 0 .278-.014.407-.041.132-.028.247-.075.345-.14a.707.706 0 0 0 .238-.264.903.903 0 0 0 .088-.426c0-.34-.096-.582-.288-.728-.193-.145-.447-.217-.762-.217h-1.59v1.816h1.562zm2.794-5.488h1.634l1.55 2.616 1.542-2.616h1.624l-2.459 4.08v2.542h-1.46v-2.579l-2.43-4.044z" fill="#fff"/><path d="M102.403 14.98c.004 5.846-4.732 10.587-10.578 10.592-5.845.005-10.588-4.73-10.593-10.576v-.015C81.23 9.135 85.965 4.394 91.81 4.389c5.846-.005 10.589 4.73 10.593 10.576v.016z" fill="#fff"/><path fill="#313131" d="M91.742 3.386c-3.212 0-5.93 1.12-8.156 3.361-2.284 2.32-3.425 5.064-3.425 8.233s1.141 5.895 3.425 8.175c2.282 2.28 5.001 3.42 8.156 3.42 3.193 0 5.96-1.15 8.303-3.45 2.204-2.183 3.308-4.898 3.308-8.145 0-3.246-1.123-5.991-3.367-8.233-2.245-2.241-4.993-3.361-8.244-3.361zm.029 2.086c2.632 0 4.867.928 6.706 2.783 1.857 1.836 2.786 4.077 2.786 6.726 0 2.666-.91 4.878-2.728 6.637-1.917 1.894-4.17 2.84-6.764 2.84-2.593 0-4.828-.937-6.705-2.81-1.877-1.876-2.816-4.098-2.816-6.668 0-2.57.949-4.812 2.845-6.725 1.819-1.855 4.043-2.783 6.676-2.783z"/><path fill="#313131" d="M86.602 13.344c.462-2.918 2.517-4.478 5.09-4.478 3.702 0 5.958 2.687 5.958 6.269 0 3.494-2.4 6.21-6.016 6.21-2.488 0-4.714-1.532-5.12-4.535h2.922c.087 1.56 1.1 2.109 2.546 2.109 1.648 0 2.72-1.531 2.72-3.871 0-2.455-.926-3.755-2.663-3.755-1.273 0-2.37.462-2.602 2.05l.85-.004-2.3 2.3-2.3-2.3.915.004z"/><g transform="matrix(.99378 0 0 .99367 -177.694 -74.436)"><circle cx="242.562" cy="90.225" r="10.806" fill="#fff"/><path fill="#313131" d="M245.69 87.098a.754.754 0 0 0-.754-.754h-4.772a.754.754 0 0 0-.754.754v4.773h1.33v5.652h3.618V91.87h1.332v-4.773z"/><circle fill="#313131" cx="242.55" cy="84.083" r="1.632"/><path fill="#313131" clip-rule="evenodd" d="M242.535 78.318c-3.232 0-5.969 1.128-8.208 3.384-2.298 2.333-3.446 5.095-3.446 8.284 0 3.19 1.148 5.932 3.446 8.227s5.034 3.442 8.208 3.442c3.213 0 5.998-1.156 8.353-3.471 2.22-2.197 3.33-4.93 3.33-8.198 0-3.267-1.129-6.028-3.387-8.284-2.26-2.256-5.025-3.384-8.296-3.384zm.029 2.1c2.648 0 4.897.934 6.747 2.8 1.87 1.848 2.805 4.104 2.805 6.768 0 2.684-.915 4.911-2.746 6.681-1.928 1.906-4.197 2.858-6.806 2.858-2.61 0-4.858-.942-6.747-2.83-1.89-1.885-2.833-4.122-2.833-6.709 0-2.586.954-4.842 2.862-6.767 1.83-1.867 4.07-2.801 6.718-2.801z" fill-rule="evenodd"/></g></svg>
