<svg viewBox="0 0 194 97" fill="none" xmlns="http://www.w3.org/2000/svg"><path d="M56.487 72.704l-14.03 8.083-28.011-16.166V32.38l28.012-16.167 14.029 8.083V8.176L42.457.092.418 24.296v48.408l42.04 24.204 14.03-8.084v-16.12z" fill="#E1000F"/><path d="M56.487 56.583V40.417l-14.03-8.038-13.982 8.038v16.166l13.983 8.038 14.029-8.038z" fill="#000091"/><g><path d="M70.562 23.234c0-1.063.834-1.802 2.315-2.079l2.269-.37v-.369c0-.877-.648-1.386-1.528-1.386-.787 0-1.389.37-1.76.924l-1.064-.831c.648-.832 1.62-1.386 2.87-1.386 1.899 0 2.964 1.109 2.964 2.68v4.618h-1.436v-.785c-.509.647-1.389 1.016-2.222 1.016-1.435 0-2.408-.831-2.408-2.032zm2.64.831c.88 0 1.574-.416 1.99-1.062v-1.201l-1.898.323c-.88.139-1.25.508-1.25 1.063 0 .508.417.877 1.157.877zm5.648-6.05h1.435v.646c.51-.554 1.158-.924 2.084-.924.972 0 1.76.416 2.222 1.247.556-.693 1.25-1.247 2.454-1.247 1.482 0 2.593 1.016 2.593 2.956v4.342h-1.435V20.74c0-1.016-.556-1.662-1.482-1.662-.833 0-1.389.508-1.76 1.2v4.712h-1.434v-4.296c0-1.016-.556-1.663-1.482-1.663-.88 0-1.436.6-1.76 1.201v4.712H78.85v-6.929zm16.807 7.297c-1.018 0-1.76-.37-2.361-1.016v.74H91.86v-10.44h1.435v4.157c.602-.646 1.343-1.016 2.361-1.016 2.223 0 3.565 1.755 3.565 3.788.047 2.032-1.342 3.787-3.565 3.787zm-2.361-5.034v2.494c.51.785 1.296 1.2 2.176 1.2 1.343 0 2.269-1.062 2.269-2.447 0-1.386-.926-2.448-2.269-2.448-.926 0-1.667.462-2.176 1.2zm7.177 2.956c0-1.063.833-1.802 2.315-2.079l2.268-.37v-.369c0-.877-.648-1.386-1.528-1.386-.787 0-1.389.37-1.759.924l-1.065-.831c.648-.832 1.621-1.386 2.871-1.386 1.898 0 2.963 1.109 2.963 2.68v4.618h-1.435v-.785c-.51.647-1.389 1.016-2.223 1.016-1.435 0-2.407-.831-2.407-2.032zm2.639.831c.879 0 1.574-.416 1.991-1.062v-1.201l-1.899.323c-.879.139-1.25.508-1.25 1.063 0 .508.417.877 1.158.877zm5.926-.877c.463.6 1.019.97 1.713.97.695 0 1.065-.416 1.065-.924 0-1.432-3.426-.924-3.426-3.372 0-1.155.972-2.079 2.361-2.079 1.019 0 1.945.508 2.454 1.155l-.972.832c-.371-.509-.88-.832-1.435-.832-.649 0-1.019.37-1.019.878 0 1.385 3.426.924 3.426 3.325 0 1.386-1.111 2.218-2.454 2.218-1.204 0-2.083-.462-2.731-1.248l1.018-.923zm6.204 0c.463.6 1.019.97 1.714.97.694 0 1.065-.416 1.065-.924 0-1.432-3.427-.924-3.427-3.372 0-1.155.973-2.079 2.362-2.079 1.018 0 1.944.508 2.454 1.155l-.973.832c-.37-.509-.879-.832-1.435-.832-.648 0-1.019.37-1.019.878 0 1.385 3.427.924 3.427 3.325 0 1.386-1.112 2.218-2.454 2.218-1.204 0-2.084-.462-2.732-1.248l1.018-.923zm5.51.046c0-1.063.834-1.802 2.315-2.079l2.269-.37v-.369c0-.877-.648-1.386-1.528-1.386-.787 0-1.389.37-1.759.924l-1.065-.831c.648-.832 1.62-1.386 2.87-1.386 1.899 0 2.964 1.109 2.964 2.68v4.618h-1.436v-.785c-.509.647-1.389 1.016-2.222 1.016-1.482 0-2.408-.831-2.408-2.032zm2.593.831c.88 0 1.574-.416 1.991-1.062v-1.201l-1.898.323c-.88.139-1.25.508-1.25 1.063 0 .508.463.877 1.157.877zm8.705-6.328c1.018 0 1.759.37 2.361.97v-4.11h1.482v10.438h-1.482v-.693c-.602.647-1.343.97-2.361.97-2.223 0-3.612-1.755-3.612-3.787 0-2.033 1.389-3.788 3.612-3.788zm.185 6.236c.926 0 1.667-.416 2.176-1.155v-2.54c-.509-.786-1.296-1.155-2.176-1.155-1.343 0-2.269 1.062-2.269 2.448s.926 2.402 2.269 2.402zm9.26 1.34c-2.408 0-3.843-1.756-3.843-3.788 0-2.079 1.343-3.788 3.565-3.788 1.945 0 3.195 1.294 3.195 3.095 0 .323-.046.646-.093.877h-5.185c.092 1.525 1.018 2.31 2.361 2.31.833 0 1.574-.37 1.991-.97l1.065.832c-.695.877-1.76 1.431-3.056 1.431zm-2.315-4.666h3.797c-.047-.877-.695-1.663-1.76-1.663-1.111-.046-1.852.554-2.037 1.663zm11.76-2.633h1.436v3.927c0 2.078-1.204 3.371-3.195 3.371-1.991 0-3.195-1.247-3.195-3.372v-3.926h1.435v4.019c0 1.2.649 1.94 1.76 1.94 1.065 0 1.713-.74 1.713-1.94v-4.019h.046zm3.612 0h1.435v.785c.509-.554 1.111-.923 1.945-.923.231 0 .416.046.602.092v1.386c-.232-.046-.463-.093-.741-.093-.88 0-1.482.462-1.852 1.063v4.665h-1.436v-6.975h.047zM70.979 33.72h1.435v.74c.602-.648 1.343-1.017 2.362-1.017 2.222 0 3.565 1.755 3.565 3.788 0 2.032-1.39 3.787-3.565 3.787-1.019 0-1.76-.37-2.362-1.016v4.157H70.98V33.72zm1.435 2.263v2.495c.51.785 1.297 1.2 2.177 1.2 1.342 0 2.268-1.062 2.268-2.447 0-1.386-.926-2.449-2.268-2.449-.927 0-1.667.462-2.177 1.201zm14.91 1.248c0 2.078-1.529 3.787-3.797 3.787-2.27 0-3.797-1.709-3.797-3.788 0-2.078 1.528-3.787 3.796-3.787 2.223 0 3.797 1.709 3.797 3.788zm-1.529 0c0-1.386-.972-2.449-2.315-2.449s-2.315 1.063-2.315 2.449c0 1.339.972 2.448 2.315 2.448s2.315-1.109 2.315-2.448zm8.057-3.51h1.435v3.925c0 2.079-1.204 3.372-3.195 3.372-1.99 0-3.195-1.247-3.195-3.372V33.72h1.436v4.019c0 1.2.648 1.94 1.76 1.94 1.064 0 1.712-.74 1.712-1.94v-4.019h.047zm3.657 0h1.436v.784c.509-.554 1.111-.923 1.944-.923.232 0 .417.046.602.092v1.386a3.602 3.602 0 0 0-.741-.093c-.88 0-1.481.462-1.852 1.063v4.665h-1.435v-6.975h.046zm9.353-3.419h1.435V40.74h-1.435V30.301zm7.084 10.716c-2.408 0-3.843-1.755-3.843-3.788 0-2.078 1.343-3.787 3.565-3.787 1.945 0 3.195 1.293 3.195 3.095 0 .323-.046.646-.093.877h-5.185c.092 1.525 1.018 2.31 2.361 2.31.833 0 1.574-.37 1.991-.97l1.065.831c-.695.878-1.76 1.432-3.056 1.432zm-2.315-4.665h3.797c-.047-.878-.695-1.663-1.76-1.663-1.111-.046-1.805.554-2.037 1.663zm10.834-2.633h1.436v.693c.509-.554 1.204-.97 2.222-.97 1.528 0 2.732 1.062 2.732 3.095v4.203h-1.435v-4.157c0-1.109-.602-1.802-1.621-1.802-.972 0-1.528.6-1.898 1.201v4.712h-1.436v-6.975zm13.428 0h1.435v3.926c0 2.079-1.204 3.372-3.195 3.372-1.991 0-3.195-1.247-3.195-3.372V33.72h1.436v4.019c0 1.2.648 1.94 1.759 1.94 1.065 0 1.713-.74 1.713-1.94v-4.019h.047zm3.611 0h1.435v.647c.51-.555 1.158-.924 2.084-.924.972 0 1.759.416 2.222 1.247.556-.693 1.25-1.247 2.454-1.247 1.482 0 2.593 1.016 2.593 2.956v4.342h-1.435v-4.296c0-1.016-.556-1.663-1.482-1.663-.833 0-1.389.508-1.759 1.201v4.712h-1.436v-4.296c0-1.016-.555-1.663-1.481-1.663-.88 0-1.436.6-1.76 1.201v4.712h-1.435v-6.929zm16.344 7.298c-2.407 0-3.843-1.755-3.843-3.788 0-2.078 1.343-3.787 3.565-3.787 1.945 0 3.195 1.293 3.195 3.095 0 .323-.046.646-.092.877h-5.186c.092 1.525 1.018 2.31 2.361 2.31.834 0 1.574-.37 1.991-.97l1.065.831c-.695.878-1.759 1.432-3.056 1.432zm-2.315-4.665h3.797c-.047-.878-.695-1.663-1.76-1.663-1.065-.046-1.805.554-2.037 1.663zm1.389-3.741l1.435-2.31h1.575l-1.667 2.31h-1.343zm5.695 1.108h1.435v.785c.51-.554 1.112-.923 1.945-.923.232 0 .417.046.602.092v1.386a3.602 3.602 0 0 0-.741-.093c-.879 0-1.481.462-1.852 1.063v4.665h-1.435v-6.975h.046zm5.371-2.54c0-.508.463-.97.972-.97.51 0 .973.462.973.97s-.463.97-.973.97c-.555.046-.972-.416-.972-.97zm.232 2.54h1.435v7.021h-1.435v-7.021zm6.806-.277c1.018 0 1.759.37 2.361 1.016v-.739h1.482v10.44h-1.482V40c-.602.647-1.343 1.016-2.361 1.016-2.223 0-3.565-1.755-3.565-3.788 0-2.032 1.342-3.787 3.565-3.787zm.185 6.236c.926 0 1.713-.416 2.176-1.155v-2.54c-.509-.786-1.296-1.155-2.176-1.155-1.343 0-2.269 1.062-2.269 2.448 0 1.385.926 2.402 2.269 2.402zm10.742-5.959h1.435v3.926c0 2.079-1.204 3.372-3.195 3.372-1.991 0-3.194-1.247-3.194-3.372V33.72h1.435v4.019c0 1.2.648 1.94 1.759 1.94 1.065 0 1.713-.74 1.713-1.94v-4.019h.047zm6.945 7.298c-2.408 0-3.843-1.755-3.843-3.788 0-2.078 1.343-3.787 3.565-3.787 1.945 0 3.195 1.293 3.195 3.095 0 .323-.046.646-.093.877h-5.185c.092 1.525 1.018 2.31 2.361 2.31.833 0 1.574-.37 1.991-.97l1.065.831c-.695.878-1.76 1.432-3.056 1.432zm-2.315-4.665h3.797c-.047-.878-.695-1.663-1.76-1.663-1.111-.046-1.806.554-2.037 1.663zM70.377 56.583c0-1.154.88-1.893 2.5-2.17l2.64-.462.092-.555c.232-1.2-.417-1.801-1.528-1.801-.833 0-1.62.416-2.222 1.062l-.602-.508c.694-.785 1.667-1.34 2.87-1.34 1.714 0 2.64 1.063 2.316 2.68l-.834 4.619h-.787l.185-.924c-.648.739-1.435 1.108-2.454 1.108-1.343 0-2.176-.646-2.176-1.709zM72.6 57.6c1.064 0 1.852-.509 2.5-1.34l.278-1.663-2.362.416c-1.204.185-1.806.693-1.806 1.478 0 .647.51 1.108 1.39 1.108zm6.713-6.513h.834l-.14.877c.695-.739 1.436-1.154 2.362-1.154 1.065 0 1.898.508 2.13 1.524.787-.97 1.667-1.525 2.685-1.525 1.528 0 2.5 1.063 2.13 2.957l-.787 4.342h-.787l.74-4.296c.278-1.432-.37-2.217-1.481-2.217-.926 0-1.76.554-2.454 1.57 0 .185-.046.416-.093.6l-.787 4.343h-.833l.787-4.296c.232-1.432-.417-2.217-1.528-2.217-.926 0-1.713.508-2.361 1.432l-.88 5.08h-.787l1.25-7.02zm15.418 7.298c-1.157 0-2.083-.508-2.639-1.34l-.185 1.063h-.834l1.853-10.44h.787l-.741 4.158a3.439 3.439 0 0 1 2.454-1.017c2.037 0 3.24 1.386 3.24 3.28.047 2.356-1.573 4.296-3.935 4.296zm-1.944-5.45l-.556 3.094c.463.97 1.297 1.57 2.454 1.57 1.806 0 3.102-1.524 3.102-3.51 0-1.432-.926-2.494-2.5-2.494-.926 0-1.852.416-2.5 1.34zm6.991 3.648c0-1.154.88-1.893 2.5-2.17l2.639-.462.093-.555c.232-1.2-.417-1.801-1.528-1.801-.833 0-1.62.416-2.222 1.062l-.602-.508c.694-.785 1.667-1.34 2.87-1.34 1.714 0 2.64 1.063 2.315 2.68l-.833 4.619h-.833l.185-.924c-.648.739-1.436 1.108-2.454 1.108-1.25 0-2.13-.646-2.13-1.709zm2.269 1.017c1.065 0 1.852-.509 2.5-1.34l.278-1.663-2.362.416c-1.203.185-1.805.693-1.805 1.478 0 .647.509 1.108 1.389 1.108zm9.63-1.34c0 1.109-.926 2.125-2.315 2.125-1.018 0-1.944-.462-2.454-1.34l.649-.462c.463.74 1.111 1.063 1.852 1.063.879 0 1.481-.6 1.481-1.386 0-1.57-2.824-1.386-2.824-3.464 0-1.109.972-1.986 2.269-1.986.972 0 1.759.554 2.129 1.247l-.648.415c-.278-.6-.787-.97-1.481-.97-.834 0-1.436.6-1.436 1.247-.046 1.617 2.778 1.432 2.778 3.511zm5.834 0c0 1.109-.926 2.125-2.315 2.125-1.018 0-1.944-.462-2.454-1.34l.648-.462c.463.74 1.112 1.063 1.852 1.063.88 0 1.482-.6 1.482-1.386 0-1.57-2.824-1.386-2.824-3.464 0-1.109.972-1.986 2.269-1.986.972 0 1.759.554 2.129 1.247l-.648.415c-.278-.6-.787-.97-1.481-.97-.834 0-1.436.6-1.436 1.247-.046 1.617 2.778 1.432 2.778 3.511zm1.528.323c0-1.154.88-1.893 2.5-2.17l2.64-.462.092-.555c.232-1.2-.417-1.801-1.528-1.801-.833 0-1.62.416-2.222 1.062l-.602-.508c.694-.785 1.667-1.34 2.871-1.34 1.713 0 2.639 1.063 2.315 2.68l-.834 4.619h-.787l.185-.924c-.648.739-1.435 1.108-2.454 1.108-1.296 0-2.176-.646-2.176-1.709zm2.223 1.017c1.065 0 1.852-.509 2.5-1.34l.278-1.663-2.362.416c-1.203.185-1.805.693-1.805 1.478.046.647.555 1.108 1.389 1.108zm9.399-6.79c1.157 0 2.129.508 2.685 1.385l.787-4.526h.787l-1.852 10.439h-.833l.139-.786c-.695.693-1.574 1.063-2.5 1.063-2.038 0-3.195-1.386-3.195-3.28 0-2.355 1.667-4.295 3.982-4.295zm-.602 6.79c.926 0 1.852-.416 2.5-1.294l.556-3.095c-.417-.97-1.297-1.616-2.454-1.616-1.806 0-3.149 1.524-3.149 3.51.046 1.432 1.019 2.495 2.547 2.495zm13.01-3.419c0 2.218-1.713 4.25-4.121 4.25-2.083 0-3.333-1.478-3.333-3.326 0-2.217 1.713-4.25 4.167-4.25 2.083-.045 3.287 1.433 3.287 3.326zm-.833-.046c0-1.386-.926-2.54-2.454-2.54-1.899 0-3.241 1.616-3.241 3.464 0 1.386.926 2.54 2.454 2.54 1.852 0 3.241-1.616 3.241-3.464zm3.426-3.048h.833l-.185 1.062c.648-.739 1.297-1.2 2.223-1.2.231 0 .463 0 .648.091l-.139.786a2.346 2.346 0 0 0-.602-.093c-.926 0-1.62.508-2.269 1.432l-.879 4.943h-.834l1.204-7.021zM72.136 66.79l.186-1.016c.278-1.663 1.296-2.402 2.5-2.402.694 0 1.204.231 1.528.462l-.463.647a1.654 1.654 0 0 0-1.065-.37c-.787 0-1.482.509-1.667 1.663l-.185 1.016h2.546l-.139.74h-2.546l-1.111 6.281h-.834l1.112-6.281H70.7l.14-.74h1.296zM82.6 69.886c0 2.217-1.713 4.25-4.12 4.25-2.084 0-3.334-1.478-3.334-3.326 0-2.217 1.713-4.25 4.167-4.25 2.084-.046 3.287 1.432 3.287 3.326zm-.833-.046c0-1.386-.926-2.54-2.454-2.54-1.898 0-3.241 1.616-3.241 3.464 0 1.386.926 2.54 2.454 2.54 1.852 0 3.241-1.616 3.241-3.464zm3.426-3.049h.834l-.186 1.063c.649-.74 1.297-1.201 2.223-1.201.232 0 .463 0 .648.092l-.139.785c-.185-.046-.37-.092-.602-.092-.926 0-1.62.508-2.268 1.432l-.88 4.942h-.833l1.203-7.02zm11.668-.277c1.158 0 2.13.508 2.686 1.386l.787-4.527h.787l-1.852 10.44h-.834l.14-.786c-.695.693-1.575 1.063-2.501 1.063-2.037 0-3.195-1.386-3.195-3.28.047-2.356 1.667-4.296 3.982-4.296zm-.556 6.79c.926 0 1.852-.415 2.5-1.293l.556-3.095c-.416-.97-1.296-1.617-2.454-1.617-1.805 0-3.148 1.525-3.148 3.511.046 1.432.972 2.494 2.546 2.494zm6.853-6.513h.833l-1.25 7.021h-.787l1.204-7.02zm.324-2.817c0-.323.278-.6.648-.6.371 0 .649.276.649.6 0 .37-.278.647-.649.647-.37-.047-.648-.278-.648-.647zm2.315 9.284c-.278-.185-.417-.508-.417-.831 0-.647.51-1.155 1.204-1.478a2.234 2.234 0 0 1-.741-1.663c0-1.386 1.019-2.725 2.917-2.725.463 0 .88.092 1.25.277h2.686l-.139.739h-1.806c.232.37.371.785.371 1.2 0 1.386-1.065 2.772-2.871 2.772-.417 0-.833-.092-1.157-.23-.602.276-.926.646-.926 1.015 0 .277.138.462.555.462h1.945c1.713 0 2.454.832 2.454 1.94 0 1.432-1.343 2.633-3.704 2.633-2.13 0-3.103-.785-3.103-1.94 0-.924.556-1.663 1.482-2.17zm1.621 3.326c1.898 0 2.824-.785 2.824-1.848 0-.647-.37-1.2-1.621-1.2h-2.083c-.926.415-1.389 1.154-1.389 1.708.046.785.694 1.34 2.269 1.34zm1.296-9.377c-1.389 0-2.083 1.016-2.083 2.033 0 .831.555 1.57 1.574 1.57 1.342 0 2.083-1.016 2.083-2.032 0-.878-.555-1.57-1.574-1.57zm5.325-.415h.833l-1.25 7.02h-.787l1.204-7.02zm.278-2.818c0-.323.277-.6.648-.6.37 0 .648.276.648.6 0 .37-.278.647-.648.647-.371-.047-.648-.278-.648-.647zm3.472 3.557h-1.296l.139-.74h1.296l.324-1.755h.833l-.324 1.755h2.547l-.139.74h-2.547l-.694 3.972c-.232 1.386.324 1.663 1.204 1.663.416 0 .741-.093 1.065-.185l-.139.739c-.324.139-.648.185-1.065.185-1.389 0-2.223-.647-1.898-2.495l.694-3.88zm3.982 4.757c0-1.155.88-1.894 2.5-2.17l2.639-.463.093-.554c.231-1.201-.417-1.802-1.528-1.802-.833 0-1.621.416-2.222 1.063l-.602-.508c.694-.785 1.666-1.34 2.87-1.34 1.713 0 2.639 1.063 2.315 2.68l-.833 4.618h-.787l.185-.923c-.648.739-1.435 1.108-2.454 1.108-1.343 0-2.176-.647-2.176-1.709zm2.222 1.016c1.065 0 1.852-.508 2.501-1.34l.277-1.662-2.361.416c-1.204.184-1.806.692-1.806 1.478 0 .646.51 1.108 1.389 1.108zm7.316-9.93h.787l-1.852 10.438h-.787l1.852-10.439zm5.278 8.914c0-1.155.88-1.894 2.5-2.17l2.639-.463.093-.554c.232-1.201-.417-1.802-1.528-1.802-.833 0-1.62.416-2.222 1.063l-.602-.508c.694-.785 1.667-1.34 2.87-1.34 1.714 0 2.64 1.063 2.315 2.68l-.833 4.618h-.787l.185-.923c-.648.739-1.435 1.108-2.454 1.108-1.342 0-2.176-.647-2.176-1.709zm2.223 1.016c1.064 0 1.852-.508 2.5-1.34l.278-1.662-2.362.416c-1.204.184-1.805.692-1.805 1.478 0 .646.509 1.108 1.389 1.108zm7.084-6.513l.185-1.016c.278-1.663 1.296-2.402 2.5-2.402.695 0 1.204.231 1.528.462l-.463.647a1.654 1.654 0 0 0-1.065-.37c-.787 0-1.482.509-1.667 1.663l-.185 1.016h2.547l-.139.74h-2.547l-1.111 6.281h-.834l1.112-6.281h-1.297l.139-.74h1.297zm5.37 0l.186-1.016c.277-1.663 1.296-2.402 2.5-2.402.694 0 1.204.231 1.528.462l-.463.647a1.654 1.654 0 0 0-1.065-.37c-.787 0-1.482.509-1.667 1.663l-.185 1.016h2.546l-.139.74h-2.546l-1.111 6.281h-.834l1.112-6.281h-1.297l.139-.74h1.296zm3.01 5.497c0-1.155.88-1.894 2.5-2.17l2.639-.463.093-.554c.232-1.201-.417-1.802-1.528-1.802-.833 0-1.62.416-2.222 1.063l-.602-.508c.694-.785 1.667-1.34 2.87-1.34 1.714 0 2.64 1.063 2.315 2.68l-.833 4.618h-.787l.185-.923c-.648.739-1.435 1.108-2.454 1.108-1.343 0-2.176-.647-2.176-1.709zm2.222 1.016c1.065 0 1.852-.508 2.501-1.34l.278-1.662-2.362.416c-1.204.184-1.806.692-1.806 1.478 0 .646.51 1.108 1.389 1.108zm6.714-6.513h.833l-1.25 7.021h-.787l1.204-7.02zm.278-2.817c0-.323.278-.6.648-.6s.648.276.648.6c0 .37-.278.647-.648.647-.37-.047-.648-.278-.648-.647zm3.241 2.817h.833l-.185 1.063c.648-.74 1.296-1.201 2.222-1.201.232 0 .464 0 .649.092l-.139.785a2.358 2.358 0 0 0-.602-.092c-.926 0-1.621.508-2.269 1.432l-.88 4.942h-.833l1.204-7.02zm8.241 5.174c0 1.108-.926 2.124-2.315 2.124-1.018 0-1.944-.461-2.454-1.339l.649-.462c.463.74 1.111 1.063 1.852 1.063.879 0 1.481-.601 1.481-1.386 0-1.57-2.824-1.386-2.824-3.465 0-1.108.972-1.986 2.269-1.986.972 0 1.759.555 2.13 1.247l-.649.416c-.278-.6-.787-.97-1.481-.97-.834 0-1.436.6-1.436 1.247-.092 1.617 2.778 1.432 2.778 3.51z" fill="#000091"/></g></svg>