<?xml version="1.0" encoding="UTF-8"?>
<svg width="440px" height="230px" viewBox="0 0 440 230" xmlns="http://www.w3.org/2000/svg" xmlns:xlink="http://www.w3.org/1999/xlink" version="1.1">
 <!-- Generated by Pixelmator Pro 1.2 -->
 <path id="path" d="M138 167.4 L107.7 184.9 47.2 149.9 47.2 80.1 107.7 45.1 138 62.6 138 27.7 107.7 10.2 16.9 62.6 16.9 167.4 107.7 219.8 138 202.3 Z" fill="#e1000f" fill-opacity="1" stroke="none"/>
 <path id="path-1" d="M138 132.5 L138 97.5 107.7 80.1 77.5 97.5 77.5 132.5 107.7 149.9 Z" fill="#000091" fill-opacity="1" stroke="none"/>
 <path id="path-2" d="M168.4 60.3 C168.4 58 170.2 56.4 173.4 55.8 L178.3 55 178.3 54.2 C178.3 52.3 176.9 51.2 175 51.2 173.3 51.2 172 52 171.2 53.2 L168.9 51.4 C170.3 49.6 172.4 48.4 175.1 48.4 179.2 48.4 181.5 50.8 181.5 54.2 L181.5 64.2 178.4 64.2 178.4 62.5 C177.3 63.9 175.4 64.7 173.6 64.7 170.5 64.7 168.4 62.9 168.4 60.3 Z M174.1 62.1 C176 62.1 177.5 61.2 178.4 59.8 L178.4 57.2 174.3 57.9 C172.4 58.2 171.6 59 171.6 60.2 171.6 61.3 172.5 62.1 174.1 62.1 Z" fill="#000091" fill-opacity="1" stroke="none"/>
 <path id="path-3" d="M186.3 49 L189.4 49 189.4 50.4 C190.5 49.2 191.9 48.4 193.9 48.4 196 48.4 197.7 49.3 198.7 51.1 199.9 49.6 201.4 48.4 204 48.4 207.2 48.4 209.6 50.6 209.6 54.8 L209.6 64.2 206.5 64.2 206.5 54.9 C206.5 52.7 205.3 51.3 203.3 51.3 201.5 51.3 200.3 52.4 199.5 53.9 199.5 54.2 199.5 54.4 199.5 54.7 L199.5 64.1 196.4 64.1 196.4 54.8 C196.4 52.6 195.2 51.2 193.2 51.2 191.3 51.2 190.1 52.5 189.4 53.8 L189.4 64 186.3 64 186.3 49 Z" fill="#000091" fill-opacity="1" stroke="none"/>
 <path id="path-4" d="M222.6 64.8 C220.4 64.8 218.8 64 217.5 62.6 L217.5 64.2 214.4 64.2 214.4 41.6 217.5 41.6 217.5 50.6 C218.8 49.2 220.4 48.4 222.6 48.4 227.4 48.4 230.3 52.2 230.3 56.6 230.4 61 227.4 64.8 222.6 64.8 Z M217.5 53.9 L217.5 59.3 C218.6 61 220.3 61.9 222.2 61.9 225.1 61.9 227.1 59.6 227.1 56.6 227.1 53.6 225.1 51.3 222.2 51.3 220.2 51.3 218.6 52.3 217.5 53.9 Z" fill="#000091" fill-opacity="1" stroke="none"/>
 <path id="path-5" d="M233 60.3 C233 58 234.8 56.4 238 55.8 L242.9 55 242.9 54.2 C242.9 52.3 241.5 51.2 239.6 51.2 237.9 51.2 236.6 52 235.8 53.2 L233.5 51.4 C234.9 49.6 237 48.4 239.7 48.4 243.8 48.4 246.1 50.8 246.1 54.2 L246.1 64.2 243 64.2 243 62.5 C241.9 63.9 240 64.7 238.2 64.7 235.1 64.7 233 62.9 233 60.3 Z M238.7 62.1 C240.6 62.1 242.1 61.2 243 59.8 L243 57.2 238.9 57.9 C237 58.2 236.2 59 236.2 60.2 236.2 61.3 237.1 62.1 238.7 62.1 Z" fill="#000091" fill-opacity="1" stroke="none"/>
 <path id="path-6" d="M251.5 60.2 C252.5 61.5 253.7 62.3 255.2 62.3 256.7 62.3 257.5 61.4 257.5 60.3 257.5 57.2 250.1 58.3 250.1 53 250.1 50.5 252.2 48.5 255.2 48.5 257.4 48.5 259.4 49.6 260.5 51 L258.4 52.8 C257.6 51.7 256.5 51 255.3 51 253.9 51 253.1 51.8 253.1 52.9 253.1 55.9 260.5 54.9 260.5 60.1 260.5 63.1 258.1 64.9 255.2 64.9 252.6 64.9 250.7 63.9 249.3 62.2 L251.5 60.2 Z" fill="#000091" fill-opacity="1" stroke="none"/>
 <path id="path-7" d="M264.9 60.2 C265.9 61.5 267.1 62.3 268.6 62.3 270.1 62.3 270.9 61.4 270.9 60.3 270.9 57.2 263.5 58.3 263.5 53 263.5 50.5 265.6 48.5 268.6 48.5 270.8 48.5 272.8 49.6 273.9 51 L271.8 52.8 C271 51.7 269.9 51 268.7 51 267.3 51 266.5 51.8 266.5 52.9 266.5 55.9 273.9 54.9 273.9 60.1 273.9 63.1 271.5 64.9 268.6 64.9 266 64.9 264.1 63.9 262.7 62.2 L264.9 60.2 Z" fill="#000091" fill-opacity="1" stroke="none"/>
 <path id="path-8" d="M276.8 60.3 C276.8 58 278.6 56.4 281.8 55.8 L286.7 55 286.7 54.2 C286.7 52.3 285.3 51.2 283.4 51.2 281.7 51.2 280.4 52 279.6 53.2 L277.3 51.4 C278.7 49.6 280.8 48.4 283.5 48.4 287.6 48.4 289.9 50.8 289.9 54.2 L289.9 64.2 286.8 64.2 286.8 62.5 C285.7 63.9 283.8 64.7 282 64.7 278.8 64.7 276.8 62.9 276.8 60.3 Z M282.4 62.1 C284.3 62.1 285.8 61.2 286.7 59.8 L286.7 57.2 282.6 57.9 C280.7 58.2 279.9 59 279.9 60.2 279.9 61.3 280.9 62.1 282.4 62.1 Z" fill="#000091" fill-opacity="1" stroke="none"/>
 <path id="path-9" d="M301.2 48.4 C303.4 48.4 305 49.2 306.3 50.5 L306.3 41.6 309.5 41.6 309.5 64.2 306.3 64.2 306.3 62.7 C305 64.1 303.4 64.8 301.2 64.8 296.4 64.8 293.4 61 293.4 56.6 293.4 52.2 296.4 48.4 301.2 48.4 Z M301.6 61.9 C303.6 61.9 305.2 61 306.3 59.4 L306.3 53.9 C305.2 52.2 303.5 51.4 301.6 51.4 298.7 51.4 296.7 53.7 296.7 56.7 296.7 59.7 298.7 61.9 301.6 61.9 Z" fill="#000091" fill-opacity="1" stroke="none"/>
 <path id="path-10" d="M321.6 64.8 C316.4 64.8 313.3 61 313.3 56.6 313.3 52.1 316.2 48.4 321 48.4 325.2 48.4 327.9 51.2 327.9 55.1 327.9 55.8 327.8 56.5 327.7 57 L316.5 57 C316.7 60.3 318.7 62 321.6 62 323.4 62 325 61.2 325.9 59.9 L328.2 61.7 C326.7 63.6 324.4 64.8 321.6 64.8 Z M316.6 54.7 L324.8 54.7 C324.7 52.8 323.3 51.1 321 51.1 318.6 51 317 52.3 316.6 54.7 Z" fill="#000091" fill-opacity="1" stroke="none"/>
 <path id="path-11" d="M342 49 L345.1 49 345.1 57.5 C345.1 62 342.5 64.8 338.2 64.8 333.9 64.8 331.3 62.1 331.3 57.5 L331.3 49 334.4 49 334.4 57.7 C334.4 60.3 335.8 61.9 338.2 61.9 340.5 61.9 341.9 60.3 341.9 57.7 L341.9 49 Z" fill="#000091" fill-opacity="1" stroke="none"/>
 <path id="path-12" d="M349.8 49 L352.9 49 352.9 50.7 C354 49.5 355.3 48.7 357.1 48.7 357.6 48.7 358 48.8 358.4 48.9 L358.4 51.9 C357.9 51.8 357.4 51.7 356.8 51.7 354.9 51.7 353.6 52.7 352.8 54 L352.8 64.1 349.7 64.1 349.7 49 Z" fill="#000091" fill-opacity="1" stroke="none"/>
 <path id="path-13" d="M169.3 83 L172.4 83 172.4 84.6 C173.7 83.2 175.3 82.4 177.5 82.4 182.3 82.4 185.2 86.2 185.2 90.6 185.2 95 182.2 98.8 177.5 98.8 175.3 98.8 173.7 98 172.4 96.6 L172.4 105.6 169.3 105.6 169.3 83 Z M172.4 87.9 L172.4 93.3 C173.5 95 175.2 95.9 177.1 95.9 180 95.9 182 93.6 182 90.6 182 87.6 180 85.3 177.1 85.3 175.1 85.3 173.5 86.3 172.4 87.9 Z" fill="#000091" fill-opacity="1" stroke="none"/>
 <path id="path-14" d="M204.6 90.6 C204.6 95.1 201.3 98.8 196.4 98.8 191.5 98.8 188.2 95.1 188.2 90.6 188.2 86.1 191.5 82.4 196.4 82.4 201.2 82.4 204.6 86.1 204.6 90.6 Z M201.3 90.6 C201.3 87.6 199.2 85.3 196.3 85.3 193.4 85.3 191.3 87.6 191.3 90.6 191.3 93.5 193.4 95.9 196.3 95.9 199.2 95.9 201.3 93.5 201.3 90.6 Z" fill="#000091" fill-opacity="1" stroke="none"/>
 <path id="path-15" d="M218.7 83 L221.8 83 221.8 91.5 C221.8 96 219.2 98.8 214.9 98.8 210.6 98.8 208 96.1 208 91.5 L208 83 211.1 83 211.1 91.7 C211.1 94.3 212.5 95.9 214.9 95.9 217.2 95.9 218.6 94.3 218.6 91.7 L218.6 83 Z" fill="#000091" fill-opacity="1" stroke="none"/>
 <path id="path-16" d="M226.6 83 L229.7 83 229.7 84.7 C230.8 83.5 232.1 82.7 233.9 82.7 234.4 82.7 234.8 82.8 235.2 82.9 L235.2 85.9 C234.7 85.8 234.2 85.7 233.6 85.7 231.7 85.7 230.4 86.7 229.6 88 L229.6 98.1 226.5 98.1 226.5 83 Z" fill="#000091" fill-opacity="1" stroke="none"/>
 <path id="path-17" d="M246.8 75.6 L249.9 75.6 249.9 98.2 246.8 98.2 246.8 75.6 Z" fill="#000091" fill-opacity="1" stroke="none"/>
 <path id="path-18" d="M262.1 98.8 C256.9 98.8 253.8 95 253.8 90.6 253.8 86.1 256.7 82.4 261.5 82.4 265.7 82.4 268.4 85.2 268.4 89.1 268.4 89.8 268.3 90.5 268.2 91 L257 91 C257.2 94.3 259.2 96 262.1 96 263.9 96 265.5 95.2 266.4 93.9 L268.7 95.7 C267.2 97.6 264.9 98.8 262.1 98.8 Z M257.1 88.7 L265.3 88.7 C265.2 86.8 263.8 85.1 261.5 85.1 259.1 85 257.6 86.3 257.1 88.7 Z" fill="#000091" fill-opacity="1" stroke="none"/>
 <path id="path-19" d="M280.5 83 L283.6 83 283.6 84.5 C284.7 83.3 286.2 82.4 288.4 82.4 291.7 82.4 294.3 84.7 294.3 89.1 L294.3 98.2 291.2 98.2 291.2 89.2 C291.2 86.8 289.9 85.3 287.7 85.3 285.6 85.3 284.4 86.6 283.6 87.9 L283.6 98.1 280.5 98.1 280.5 83 Z" fill="#000091" fill-opacity="1" stroke="none"/>
 <path id="path-20" d="M309.5 83 L312.6 83 312.6 91.5 C312.6 96 310 98.8 305.7 98.8 301.4 98.8 298.8 96.1 298.8 91.5 L298.8 83 301.9 83 301.9 91.7 C301.9 94.3 303.3 95.9 305.7 95.9 308 95.9 309.4 94.3 309.4 91.7 L309.4 83 Z" fill="#000091" fill-opacity="1" stroke="none"/>
 <path id="path-21" d="M317.3 83 L320.4 83 320.4 84.4 C321.5 83.2 322.9 82.4 324.9 82.4 327 82.4 328.7 83.3 329.7 85.1 330.9 83.6 332.4 82.4 335 82.4 338.2 82.4 340.6 84.6 340.6 88.8 L340.6 98.2 337.5 98.2 337.5 88.9 C337.5 86.7 336.3 85.3 334.3 85.3 332.5 85.3 331.3 86.4 330.5 87.9 330.5 88.2 330.5 88.4 330.5 88.7 L330.5 98.1 327.4 98.1 327.4 88.8 C327.4 86.6 326.2 85.2 324.2 85.2 322.3 85.2 321.1 86.5 320.4 87.8 L320.4 98 317.3 98 317.3 83 Z" fill="#000091" fill-opacity="1" stroke="none"/>
 <path id="path-22" d="M352.6 98.8 C347.4 98.8 344.3 95 344.3 90.6 344.3 86.1 347.2 82.4 352 82.4 356.2 82.4 358.9 85.2 358.9 89.1 358.9 89.8 358.8 90.5 358.7 91 L347.5 91 C347.7 94.3 349.7 96 352.6 96 354.4 96 356 95.2 356.9 93.9 L359.2 95.7 C357.7 97.6 355.4 98.8 352.6 98.8 Z M347.6 88.7 L355.8 88.7 C355.7 86.8 354.3 85.1 352 85.1 349.7 85 348.1 86.3 347.6 88.7 Z M350.6 80.6 L353.7 75.6 357.1 75.6 353.5 80.6 350.6 80.6 Z" fill="#000091" fill-opacity="1" stroke="none"/>
 <path id="path-23" d="M362.9 83 L366 83 366 84.7 C367.1 83.5 368.4 82.7 370.2 82.7 370.7 82.7 371.1 82.8 371.5 82.9 L371.5 85.9 C371 85.8 370.5 85.7 369.9 85.7 368 85.7 366.7 86.7 365.9 88 L365.9 98.1 362.8 98.1 362.8 83 Z" fill="#000091" fill-opacity="1" stroke="none"/>
 <path id="path-24" d="M374.5 77.5 C374.5 76.4 375.5 75.4 376.6 75.4 377.7 75.4 378.7 76.4 378.7 77.5 378.7 78.6 377.7 79.6 376.6 79.6 375.4 79.7 374.5 78.7 374.5 77.5 Z M375 83 L378.1 83 378.1 98.2 375 98.2 375 83 Z" fill="#000091" fill-opacity="1" stroke="none"/>
 <path id="path-25" d="M389.7 82.4 C391.9 82.4 393.5 83.2 394.8 84.6 L394.8 83 398 83 398 105.6 394.8 105.6 394.8 96.6 C393.5 98 391.9 98.8 389.7 98.8 384.9 98.8 382 95 382 90.6 382 86.2 384.9 82.4 389.7 82.4 Z M390.1 95.9 C392.1 95.9 393.8 95 394.8 93.4 L394.8 87.9 C393.7 86.2 392 85.4 390.1 85.4 387.2 85.4 385.2 87.7 385.2 90.7 385.2 93.7 387.2 95.9 390.1 95.9 Z" fill="#000091" fill-opacity="1" stroke="none"/>
 <path id="path-26" d="M413.3 83 L416.4 83 416.4 91.5 C416.4 96 413.8 98.8 409.5 98.8 405.2 98.8 402.6 96.1 402.6 91.5 L402.6 83 405.7 83 405.7 91.7 C405.7 94.3 407.1 95.9 409.5 95.9 411.8 95.9 413.2 94.3 413.2 91.7 L413.2 83 Z" fill="#000091" fill-opacity="1" stroke="none"/>
 <path id="path-27" d="M428.3 98.8 C423.1 98.8 420 95 420 90.6 420 86.1 422.9 82.4 427.7 82.4 431.9 82.4 434.6 85.2 434.6 89.1 434.6 89.8 434.5 90.5 434.4 91 L423.2 91 C423.4 94.3 425.4 96 428.3 96 430.1 96 431.7 95.2 432.6 93.9 L434.9 95.7 C433.4 97.6 431.1 98.8 428.3 98.8 Z M423.3 88.7 L431.5 88.7 C431.4 86.8 430 85.1 427.7 85.1 425.3 85 423.8 86.3 423.3 88.7 Z" fill="#000091" fill-opacity="1" stroke="none"/>
 <path id="path-28" d="M168 132.5 C168 130 169.9 128.4 173.4 127.8 L179.1 126.8 179.3 125.6 C179.8 123 178.4 121.7 176 121.7 174.2 121.7 172.5 122.6 171.2 124 L169.9 122.9 C171.4 121.2 173.5 120 176.1 120 179.8 120 181.8 122.3 181.1 125.8 L179.3 135.8 177.6 135.8 178 133.8 C176.6 135.4 174.9 136.2 172.7 136.2 169.8 136.2 168 134.8 168 132.5 Z M172.8 134.7 C175.1 134.7 176.8 133.6 178.2 131.8 L178.8 128.2 173.7 129.1 C171.1 129.5 169.8 130.6 169.8 132.3 169.8 133.7 170.9 134.7 172.8 134.7 Z" fill="#000091" fill-opacity="1" stroke="none"/>
 <path id="path-29" d="M187.3 120.6 L189.1 120.6 188.8 122.5 C190.3 120.9 191.9 120 193.9 120 196.2 120 198 121.1 198.5 123.3 200.2 121.2 202.1 120 204.3 120 207.6 120 209.7 122.3 208.9 126.4 L207.2 135.8 205.5 135.8 207.1 126.5 C207.7 123.4 206.3 121.7 203.9 121.7 201.9 121.7 200.1 122.9 198.6 125.1 198.6 125.5 198.5 126 198.4 126.4 L196.7 135.8 194.9 135.8 196.6 126.5 C197.1 123.4 195.7 121.7 193.3 121.7 191.3 121.7 189.6 122.8 188.2 124.8 L186.3 135.8 184.6 135.8 187.3 120.6 Z" fill="#000091" fill-opacity="1" stroke="none"/>
 <path id="path-30" d="M220.6 136.4 C218.1 136.4 216.1 135.3 214.9 133.5 L214.5 135.8 212.7 135.8 216.7 113.2 218.4 113.2 216.8 122.2 C218.3 120.7 220.2 120 222.1 120 226.5 120 229.1 123 229.1 127.1 229.2 132.2 225.7 136.4 220.6 136.4 Z M216.4 124.6 L215.2 131.3 C216.2 133.4 218 134.7 220.5 134.7 224.4 134.7 227.2 131.4 227.2 127.1 227.2 124 225.2 121.7 221.8 121.7 219.8 121.7 217.8 122.6 216.4 124.6 Z" fill="#000091" fill-opacity="1" stroke="none"/>
 <path id="path-31" d="M231.5 132.5 C231.5 130 233.4 128.4 236.9 127.8 L242.6 126.8 242.8 125.6 C243.3 123 241.9 121.7 239.5 121.7 237.7 121.7 236 122.6 234.7 124 L233.4 122.9 C234.9 121.2 237 120 239.6 120 243.3 120 245.3 122.3 244.6 125.8 L242.8 135.8 241 135.8 241.4 133.8 C240 135.4 238.3 136.2 236.1 136.2 233.4 136.2 231.5 134.8 231.5 132.5 Z M236.4 134.7 C238.7 134.7 240.4 133.6 241.8 131.8 L242.4 128.2 237.3 129.1 C234.7 129.5 233.4 130.6 233.4 132.3 233.4 133.7 234.5 134.7 236.4 134.7 Z" fill="#000091" fill-opacity="1" stroke="none"/>
 <path id="path-32" d="M257.2 131.8 C257.2 134.2 255.2 136.4 252.2 136.4 250 136.4 248 135.4 246.9 133.5 L248.3 132.5 C249.3 134.1 250.7 134.8 252.3 134.8 254.2 134.8 255.5 133.5 255.5 131.8 255.5 128.4 249.4 128.8 249.4 124.3 249.4 121.9 251.5 120 254.3 120 256.4 120 258.1 121.2 258.9 122.7 L257.5 123.6 C256.9 122.3 255.8 121.5 254.3 121.5 252.5 121.5 251.2 122.8 251.2 124.2 251.1 127.7 257.2 127.3 257.2 131.8 Z" fill="#000091" fill-opacity="1" stroke="none"/>
 <path id="path-33" d="M269.8 131.8 C269.8 134.2 267.8 136.4 264.8 136.4 262.6 136.4 260.6 135.4 259.5 133.5 L260.9 132.5 C261.9 134.1 263.3 134.8 264.9 134.8 266.8 134.8 268.1 133.5 268.1 131.8 268.1 128.4 262 128.8 262 124.3 262 121.9 264.1 120 266.9 120 269 120 270.7 121.2 271.5 122.7 L270.1 123.6 C269.5 122.3 268.4 121.5 266.9 121.5 265.1 121.5 263.8 122.8 263.8 124.2 263.7 127.7 269.8 127.3 269.8 131.8 Z" fill="#000091" fill-opacity="1" stroke="none"/>
 <path id="path-34" d="M273.1 132.5 C273.1 130 275 128.4 278.5 127.8 L284.2 126.8 284.4 125.6 C284.9 123 283.5 121.7 281.1 121.7 279.3 121.7 277.6 122.6 276.3 124 L275 122.9 C276.5 121.2 278.6 120 281.2 120 284.9 120 286.9 122.3 286.2 125.8 L284.4 135.8 282.7 135.8 283.1 133.8 C281.7 135.4 280 136.2 277.8 136.2 275 136.2 273.1 134.8 273.1 132.5 Z M277.9 134.7 C280.2 134.7 281.9 133.6 283.3 131.8 L283.9 128.2 278.8 129.1 C276.2 129.5 274.9 130.6 274.9 132.3 275 133.7 276.1 134.7 277.9 134.7 Z" fill="#000091" fill-opacity="1" stroke="none"/>
 <path id="path-35" d="M298.2 120 C300.7 120 302.8 121.1 304 123 L305.7 113.2 307.4 113.2 303.4 135.8 301.6 135.8 301.9 134.1 C300.4 135.6 298.5 136.4 296.5 136.4 292.1 136.4 289.6 133.4 289.6 129.3 289.6 124.2 293.2 120 298.2 120 Z M296.9 134.7 C298.9 134.7 300.9 133.8 302.3 131.9 L303.5 125.2 C302.6 123.1 300.7 121.7 298.2 121.7 294.3 121.7 291.4 125 291.4 129.3 291.5 132.4 293.6 134.7 296.9 134.7 Z" fill="#000091" fill-opacity="1" stroke="none"/>
 <path id="path-36" d="M325 127.3 C325 132.1 321.3 136.5 316.1 136.5 311.6 136.5 308.9 133.3 308.9 129.3 308.9 124.5 312.6 120.1 317.9 120.1 322.4 120 325 123.2 325 127.3 Z M323.2 127.2 C323.2 124.2 321.2 121.7 317.9 121.7 313.8 121.7 310.9 125.2 310.9 129.2 310.9 132.2 312.9 134.7 316.2 134.7 320.2 134.7 323.2 131.2 323.2 127.2 Z" fill="#000091" fill-opacity="1" stroke="none"/>
 <path id="path-37" d="M330.6 120.6 L332.4 120.6 332 122.9 C333.4 121.3 334.8 120.3 336.8 120.3 337.3 120.3 337.8 120.3 338.2 120.5 L337.9 122.2 C337.5 122.1 337.1 122 336.6 122 334.6 122 333.1 123.1 331.7 125.1 L329.8 135.8 328 135.8 330.6 120.6 Z" fill="#000091" fill-opacity="1" stroke="none"/>
 <path id="path-38" d="M171.8 154.6 L172.2 152.4 C172.8 148.8 175 147.2 177.6 147.2 179.1 147.2 180.2 147.7 180.9 148.2 L179.9 149.6 C179.3 149.1 178.5 148.8 177.6 148.8 175.9 148.8 174.4 149.9 174 152.4 L173.6 154.6 179.1 154.6 178.8 156.2 173.3 156.2 170.9 169.8 169.1 169.8 171.5 156.2 168.7 156.2 169 154.6 171.8 154.6 Z" fill="#000091" fill-opacity="1" stroke="none"/>
 <path id="path-39" d="M194.4 161.3 C194.4 166.1 190.7 170.5 185.5 170.5 181 170.5 178.3 167.3 178.3 163.3 178.3 158.5 182 154.1 187.3 154.1 191.8 154 194.4 157.2 194.4 161.3 Z M192.6 161.2 C192.6 158.2 190.6 155.7 187.3 155.7 183.2 155.7 180.3 159.2 180.3 163.2 180.3 166.2 182.3 168.7 185.6 168.7 189.6 168.7 192.6 165.2 192.6 161.2 Z" fill="#000091" fill-opacity="1" stroke="none"/>
 <path id="path-40" d="M200 154.6 L201.8 154.6 201.4 156.9 C202.8 155.3 204.2 154.3 206.2 154.3 206.7 154.3 207.2 154.3 207.6 154.5 L207.3 156.2 C206.9 156.1 206.5 156 206 156 204 156 202.5 157.1 201.1 159.1 L199.2 169.8 197.4 169.8 200 154.6 Z" fill="#000091" fill-opacity="1" stroke="none"/>
 <path id="path-41" d="M225.2 154 C227.7 154 229.8 155.1 231 157 L232.7 147.2 234.4 147.2 230.4 169.8 228.6 169.8 228.9 168.1 C227.4 169.6 225.5 170.4 223.5 170.4 219.1 170.4 216.6 167.4 216.6 163.3 216.7 158.2 220.2 154 225.2 154 Z M224 168.7 C226 168.7 228 167.8 229.4 165.9 L230.6 159.2 C229.7 157.1 227.8 155.7 225.3 155.7 221.4 155.7 218.5 159 218.5 163.3 218.6 166.4 220.6 168.7 224 168.7 Z" fill="#000091" fill-opacity="1" stroke="none"/>
 <path id="path-42" d="M238.8 154.6 L240.6 154.6 237.9 169.8 236.2 169.8 238.8 154.6 Z M239.5 148.5 C239.5 147.8 240.1 147.2 240.9 147.2 241.7 147.2 242.3 147.8 242.3 148.5 242.3 149.3 241.7 149.9 240.9 149.9 240.1 149.8 239.5 149.3 239.5 148.5 Z" fill="#000091" fill-opacity="1" stroke="none"/>
 <path id="path-43" d="M244.5 168.6 C243.9 168.2 243.6 167.5 243.6 166.8 243.6 165.4 244.7 164.3 246.2 163.6 245.2 162.7 244.6 161.4 244.6 160 244.6 157 246.8 154.1 250.9 154.1 251.9 154.1 252.8 154.3 253.6 154.7 L259.4 154.7 259.1 156.3 255.2 156.3 C255.7 157.1 256 158 256 158.9 256 161.9 253.7 164.9 249.8 164.9 248.9 164.9 248 164.7 247.3 164.4 246 165 245.3 165.8 245.3 166.6 245.3 167.2 245.6 167.6 246.5 167.6 L250.7 167.6 C254.4 167.6 256 169.4 256 171.8 256 174.9 253.1 177.5 248 177.5 243.4 177.5 241.3 175.8 241.3 173.3 241.3 171.3 242.5 169.7 244.5 168.6 Z M248 175.8 C252.1 175.8 254.1 174.1 254.1 171.8 254.1 170.4 253.3 169.2 250.6 169.2 L246.1 169.2 C244.1 170.1 243.1 171.7 243.1 172.9 243.2 174.6 244.6 175.8 248 175.8 Z M250.8 155.5 C247.8 155.5 246.3 157.7 246.3 159.9 246.3 161.7 247.5 163.3 249.7 163.3 252.6 163.3 254.2 161.1 254.2 158.9 254.2 157 253 155.5 250.8 155.5 Z" fill="#000091" fill-opacity="1" stroke="none"/>
 <path id="path-44" d="M262.3 154.6 L264.1 154.6 261.4 169.8 259.7 169.8 262.3 154.6 Z M262.9 148.5 C262.9 147.8 263.5 147.2 264.3 147.2 265.1 147.2 265.7 147.8 265.7 148.5 265.7 149.3 265.1 149.9 264.3 149.9 263.5 149.8 262.9 149.3 262.9 148.5 Z" fill="#000091" fill-opacity="1" stroke="none"/>
 <path id="path-45" d="M270.4 156.2 L267.6 156.2 267.9 154.6 270.7 154.6 271.4 150.8 273.2 150.8 272.5 154.6 278 154.6 277.7 156.2 272.2 156.2 270.7 164.8 C270.2 167.8 271.4 168.4 273.3 168.4 274.2 168.4 274.9 168.2 275.6 168 L275.3 169.6 C274.6 169.9 273.9 170 273 170 270 170 268.2 168.6 268.9 164.6 L270.4 156.2 Z" fill="#000091" fill-opacity="1" stroke="none"/>
 <path id="path-46" d="M279 166.5 C279 164 280.9 162.4 284.4 161.8 L290.1 160.8 290.3 159.6 C290.8 157 289.4 155.7 287 155.7 285.2 155.7 283.5 156.6 282.2 158 L280.9 156.9 C282.4 155.2 284.5 154 287.1 154 290.8 154 292.8 156.3 292.1 159.8 L290.3 169.8 288.6 169.8 289 167.8 C287.6 169.4 285.9 170.2 283.7 170.2 280.8 170.2 279 168.8 279 166.5 Z M283.8 168.7 C286.1 168.7 287.8 167.6 289.2 165.8 L289.8 162.2 284.7 163.1 C282.1 163.5 280.8 164.6 280.8 166.3 280.8 167.7 281.9 168.7 283.8 168.7 Z" fill="#000091" fill-opacity="1" stroke="none"/>
 <path id="path-47" d="M299.6 147.2 L301.3 147.2 297.3 169.8 295.6 169.8 299.6 147.2 Z" fill="#000091" fill-opacity="1" stroke="none"/>
 <path id="path-48" d="M311 166.5 C311 164 312.9 162.4 316.4 161.8 L322.1 160.8 322.3 159.6 C322.8 157 321.4 155.7 319 155.7 317.2 155.7 315.5 156.6 314.2 158 L312.9 156.9 C314.4 155.2 316.5 154 319.1 154 322.8 154 324.8 156.3 324.1 159.8 L322.3 169.8 320.6 169.8 321 167.8 C319.6 169.4 317.9 170.2 315.7 170.2 312.8 170.2 311 168.8 311 166.5 Z M315.8 168.7 C318.1 168.7 319.8 167.6 321.2 165.8 L321.8 162.2 316.7 163.1 C314.1 163.5 312.8 164.6 312.8 166.3 312.8 167.7 313.9 168.7 315.8 168.7 Z" fill="#000091" fill-opacity="1" stroke="none"/>
 <path id="path-49" d="M331.1 154.6 L331.5 152.4 C332.1 148.8 334.3 147.2 336.9 147.2 338.4 147.2 339.5 147.7 340.2 148.2 L339.2 149.6 C338.6 149.1 337.8 148.8 336.9 148.8 335.2 148.8 333.7 149.9 333.3 152.4 L332.9 154.6 338.4 154.6 338.1 156.2 332.6 156.2 330.2 169.8 328.4 169.8 330.8 156.2 328 156.2 328.3 154.6 331.1 154.6 Z" fill="#000091" fill-opacity="1" stroke="none"/>
 <path id="path-50" d="M342.7 154.6 L343.1 152.4 C343.7 148.8 345.9 147.2 348.5 147.2 350 147.2 351.1 147.7 351.8 148.2 L350.8 149.6 C350.2 149.1 349.4 148.8 348.5 148.8 346.8 148.8 345.3 149.9 344.9 152.4 L344.5 154.6 350 154.6 349.7 156.2 344.2 156.2 341.8 169.8 340 169.8 342.4 156.2 339.6 156.2 339.9 154.6 342.7 154.6 Z" fill="#000091" fill-opacity="1" stroke="none"/>
 <path id="path-51" d="M349.2 166.5 C349.2 164 351.1 162.4 354.6 161.8 L360.3 160.8 360.5 159.6 C361 157 359.6 155.7 357.2 155.7 355.4 155.7 353.7 156.6 352.4 158 L351.1 156.9 C352.6 155.2 354.7 154 357.3 154 361 154 363 156.3 362.3 159.8 L360.5 169.8 358.8 169.8 359.2 167.8 C357.8 169.4 356.1 170.2 353.9 170.2 351 170.2 349.2 168.8 349.2 166.5 Z M354 168.7 C356.3 168.7 358 167.6 359.4 165.8 L360 162.2 354.9 163.1 C352.3 163.5 351 164.6 351 166.3 351 167.7 352.1 168.7 354 168.7 Z" fill="#000091" fill-opacity="1" stroke="none"/>
 <path id="path-52" d="M368.5 154.6 L370.3 154.6 367.6 169.8 365.9 169.8 368.5 154.6 Z M369.1 148.5 C369.1 147.8 369.7 147.2 370.5 147.2 371.3 147.2 371.9 147.8 371.9 148.5 371.9 149.3 371.3 149.9 370.5 149.9 369.7 149.8 369.1 149.3 369.1 148.5 Z" fill="#000091" fill-opacity="1" stroke="none"/>
 <path id="path-53" d="M376.1 154.6 L377.9 154.6 377.5 156.9 C378.9 155.3 380.3 154.3 382.3 154.3 382.8 154.3 383.3 154.3 383.7 154.5 L383.4 156.2 C383 156.1 382.6 156 382.1 156 380.1 156 378.6 157.1 377.2 159.1 L375.3 169.8 373.5 169.8 376.1 154.6 Z" fill="#000091" fill-opacity="1" stroke="none"/>
 <path id="path-54" d="M393.9 165.8 C393.9 168.2 391.9 170.4 388.9 170.4 386.7 170.4 384.7 169.4 383.6 167.5 L385 166.5 C386 168.1 387.4 168.8 389 168.8 390.9 168.8 392.2 167.5 392.2 165.8 392.2 162.4 386.1 162.8 386.1 158.3 386.1 155.9 388.2 154 391 154 393.1 154 394.8 155.2 395.6 156.7 L394.2 157.6 C393.6 156.3 392.5 155.5 391 155.5 389.2 155.5 387.9 156.8 387.9 158.2 387.7 161.7 393.9 161.3 393.9 165.8 Z" fill="#000091" fill-opacity="1" stroke="none"/>
</svg>
