<svg viewBox="0 0 194 97" fill="none" xmlns="http://www.w3.org/2000/svg">
	<g id="logo_paths">
		<path d="M56.4869 72.7038L42.4578 80.7872L14.4459 64.6205V32.3796L42.4578 16.2129L56.4869 24.2962V8.17574L42.4578 0.0924072L0.416748 24.2962V72.7038L42.4578 96.9076L56.4869 88.8243V72.7038Z" fill="#E1000F"/>
		<path d="M56.4869 56.5833V40.4167L42.4578 32.3795L28.475 40.4167V56.5833L42.4578 64.6205L56.4869 56.5833Z" fill="#000091"/>
	</g>
	<g id="logo_txt">
		<path d="M70.5623 23.2338C70.5623 22.1714 71.3957 21.4324 72.8773 21.1552L75.146 20.7857V20.4162C75.146 19.5386 74.4978 19.0305 73.6181 19.0305C72.831 19.0305 72.2291 19.4 71.8587 19.9543L70.7938 19.1228C71.442 18.2914 72.4143 17.7371 73.6644 17.7371C75.5627 17.7371 76.6277 18.8457 76.6277 20.4162V25.0352H75.1923V24.25C74.683 24.8966 73.8033 25.2662 72.9699 25.2662C71.5346 25.2662 70.5623 24.4347 70.5623 23.2338ZM73.2014 24.0652C74.0811 24.0652 74.7756 23.6495 75.1923 23.0028V21.8019L73.294 22.1252C72.4143 22.2638 72.0439 22.6333 72.0439 23.1876C72.0439 23.6957 72.4606 24.0652 73.2014 24.0652Z" fill="#000091"/>
		<path d="M78.8501 18.0143H80.2854V18.6609C80.7947 18.1066 81.4429 17.7371 82.3689 17.7371C83.3413 17.7371 84.1284 18.1528 84.5914 18.9843C85.147 18.2914 85.8415 17.7371 87.0453 17.7371C88.5269 17.7371 89.6382 18.7533 89.6382 20.6933V25.0352H88.2028V20.7395C88.2028 19.7233 87.6472 19.0766 86.7212 19.0766C85.8878 19.0766 85.3322 19.5847 84.9618 20.2776C84.9618 20.4162 84.9618 20.5085 84.9618 20.6471V24.989H83.5265V20.6933C83.5265 19.6771 82.9709 19.0305 82.0448 19.0305C81.1651 19.0305 80.6095 19.6309 80.2854 20.2314V24.9428H78.8501V18.0143Z" fill="#000091"/>
		<path d="M95.6573 25.3124C94.6386 25.3124 93.8978 24.9429 93.2959 24.2962V25.0352H91.8606V14.5962H93.2959V18.7533C93.8978 18.1067 94.6386 17.7371 95.6573 17.7371C97.8797 17.7371 99.2224 19.4924 99.2224 21.5248C99.2687 23.5571 97.8797 25.3124 95.6573 25.3124ZM93.2959 20.2776V22.7719C93.8052 23.5571 94.5923 23.9729 95.4721 23.9729C96.8148 23.9729 97.7408 22.9105 97.7408 21.5248C97.7408 20.139 96.8148 19.0767 95.4721 19.0767C94.546 19.0767 93.8052 19.5386 93.2959 20.2776Z" fill="#000091"/>
		<path d="M100.473 23.2338C100.473 22.1714 101.306 21.4324 102.788 21.1552L105.056 20.7857V20.4162C105.056 19.5386 104.408 19.0305 103.528 19.0305C102.741 19.0305 102.139 19.4 101.769 19.9543L100.704 19.1228C101.352 18.2914 102.325 17.7371 103.575 17.7371C105.473 17.7371 106.538 18.8457 106.538 20.4162V25.0352H105.103V24.25C104.593 24.8966 103.714 25.2662 102.88 25.2662C101.445 25.2662 100.473 24.4347 100.473 23.2338ZM103.112 24.0652C103.991 24.0652 104.686 23.6495 105.103 23.0028V21.8019L103.204 22.1252C102.325 22.2638 101.954 22.6333 101.954 23.1876C101.954 23.6957 102.371 24.0652 103.112 24.0652Z" fill="#000091"/>
		<path d="M109.038 23.1876C109.501 23.7881 110.057 24.1576 110.751 24.1576C111.446 24.1576 111.816 23.7419 111.816 23.2338C111.816 21.8019 108.39 22.31 108.39 19.8619C108.39 18.7071 109.362 17.7833 110.751 17.7833C111.77 17.7833 112.696 18.2914 113.205 18.9381L112.233 19.7695C111.862 19.2614 111.353 18.9381 110.798 18.9381C110.149 18.9381 109.779 19.3076 109.779 19.8157C109.779 21.2014 113.205 20.7395 113.205 23.1414C113.205 24.5271 112.094 25.3586 110.751 25.3586C109.547 25.3586 108.668 24.8967 108.02 24.1114L109.038 23.1876Z" fill="#000091"/>
		<path d="M115.242 23.1876C115.705 23.7881 116.261 24.1576 116.956 24.1576C117.65 24.1576 118.021 23.7419 118.021 23.2338C118.021 21.8019 114.594 22.31 114.594 19.8619C114.594 18.7071 115.567 17.7833 116.956 17.7833C117.974 17.7833 118.9 18.2914 119.41 18.9381L118.437 19.7695C118.067 19.2614 117.558 18.9381 117.002 18.9381C116.354 18.9381 115.983 19.3076 115.983 19.8157C115.983 21.2014 119.41 20.7395 119.41 23.1414C119.41 24.5271 118.298 25.3586 116.956 25.3586C115.752 25.3586 114.872 24.8967 114.224 24.1114L115.242 23.1876Z" fill="#000091"/>
		<path d="M120.752 23.2338C120.752 22.1714 121.586 21.4324 123.067 21.1552L125.336 20.7857V20.4162C125.336 19.5386 124.688 19.0305 123.808 19.0305C123.021 19.0305 122.419 19.4 122.049 19.9543L120.984 19.1228C121.632 18.2914 122.604 17.7371 123.854 17.7371C125.753 17.7371 126.818 18.8457 126.818 20.4162V25.0352H125.382V24.25C124.873 24.8966 123.993 25.2662 123.16 25.2662C121.678 25.2662 120.752 24.4347 120.752 23.2338ZM123.345 24.0652C124.225 24.0652 124.919 23.6495 125.336 23.0028V21.8019L123.438 22.1252C122.558 22.2638 122.188 22.6333 122.188 23.1876C122.188 23.6957 122.651 24.0652 123.345 24.0652Z" fill="#000091"/>
		<path d="M132.05 17.7371C133.068 17.7371 133.809 18.1067 134.411 18.7071V14.5962H135.893V25.0352H134.411V24.3424C133.809 24.989 133.068 25.3124 132.05 25.3124C129.827 25.3124 128.438 23.5571 128.438 21.5248C128.438 19.4924 129.827 17.7371 132.05 17.7371ZM132.235 23.9729C133.161 23.9729 133.902 23.5571 134.411 22.8181V20.2776C133.902 19.4924 133.115 19.1229 132.235 19.1229C130.892 19.1229 129.966 20.1852 129.966 21.571C129.966 22.9567 130.892 23.9729 132.235 23.9729Z" fill="#000091"/>
		<path d="M141.495 25.3124C139.087 25.3124 137.652 23.5571 137.652 21.5247C137.652 19.4462 138.995 17.7371 141.217 17.7371C143.162 17.7371 144.412 19.0305 144.412 20.8319C144.412 21.1552 144.366 21.4785 144.319 21.7095H139.134C139.226 23.2338 140.152 24.019 141.495 24.019C142.328 24.019 143.069 23.6495 143.486 23.049L144.551 23.8805C143.856 24.7581 142.791 25.3124 141.495 25.3124ZM139.18 20.6471H142.977C142.93 19.7695 142.282 18.9843 141.217 18.9843C140.106 18.9381 139.365 19.5385 139.18 20.6471Z" fill="#000091"/>
		<path d="M150.94 18.0143H152.376V21.9405C152.376 24.019 151.172 25.3124 149.181 25.3124C147.19 25.3124 145.986 24.0652 145.986 21.9405V18.0143H147.421V22.0329C147.421 23.2338 148.07 23.9729 149.181 23.9729C150.246 23.9729 150.894 23.2338 150.894 22.0329V18.0143H150.94Z" fill="#000091"/>
		<path d="M154.552 18.0143H155.987V18.7995C156.496 18.2453 157.098 17.8757 157.932 17.8757C158.163 17.8757 158.348 17.9219 158.534 17.9681V19.3538C158.302 19.3076 158.071 19.2614 157.793 19.2614C156.913 19.2614 156.311 19.7234 155.941 20.3238V24.9891H154.505V18.0143H154.552Z" fill="#000091"/>
		<path d="M70.979 33.719H72.4143V34.4581C73.0162 33.8114 73.757 33.4419 74.7757 33.4419C76.9981 33.4419 78.3408 35.1971 78.3408 37.2295C78.3408 39.2619 76.9518 41.0171 74.7757 41.0171C73.757 41.0171 73.0162 40.6476 72.4143 40.0009V44.1581H70.979V33.719ZM72.4143 35.9824V38.4767C72.9236 39.2619 73.7107 39.6776 74.5905 39.6776C75.9332 39.6776 76.8592 38.6152 76.8592 37.2295C76.8592 35.8438 75.9332 34.7814 74.5905 34.7814C73.6644 34.7814 72.9236 35.2433 72.4143 35.9824Z" fill="#000091"/>
		<path d="M87.3232 37.2295C87.3232 39.3081 85.7952 41.0171 83.5265 41.0171C81.2578 41.0171 79.7299 39.3081 79.7299 37.2295C79.7299 35.1509 81.2578 33.4419 83.5265 33.4419C85.7489 33.4419 87.3232 35.1509 87.3232 37.2295ZM85.7952 37.2295C85.7952 35.8438 84.8229 34.7814 83.4802 34.7814C82.1375 34.7814 81.1652 35.8438 81.1652 37.2295C81.1652 38.569 82.1375 39.6776 83.4802 39.6776C84.8229 39.6776 85.7952 38.569 85.7952 37.2295Z" fill="#000091"/>
		<path d="M93.8516 33.7191H95.2869V37.6452C95.2869 39.7238 94.0831 41.0172 92.0921 41.0172C90.1012 41.0172 88.8974 39.77 88.8974 37.6452V33.7191H90.3327V37.7376C90.3327 38.9386 90.9809 39.6776 92.0921 39.6776C93.1571 39.6776 93.8053 38.9386 93.8053 37.7376V33.7191H93.8516Z" fill="#000091"/>
		<path d="M97.5093 33.7191H98.9446V34.5043C99.4539 33.95 100.056 33.5805 100.889 33.5805C101.121 33.5805 101.306 33.6267 101.491 33.6729V35.0586C101.26 35.0124 101.028 34.9662 100.75 34.9662C99.8707 34.9662 99.2687 35.4281 98.8983 36.0286V40.6938H97.463V33.7191H97.5093Z" fill="#000091"/>
		<path d="M106.862 30.301H108.297V40.74H106.862V30.301Z" fill="#000091"/>
		<path d="M113.946 41.0171C111.538 41.0171 110.103 39.2619 110.103 37.2295C110.103 35.1509 111.446 33.4419 113.668 33.4419C115.613 33.4419 116.863 34.7352 116.863 36.5367C116.863 36.86 116.817 37.1833 116.77 37.4143H111.585C111.677 38.9386 112.603 39.7238 113.946 39.7238C114.779 39.7238 115.52 39.3543 115.937 38.7538L117.002 39.5852C116.307 40.4628 115.242 41.0171 113.946 41.0171ZM111.631 36.3519H115.428C115.381 35.4743 114.733 34.689 113.668 34.689C112.557 34.6428 111.863 35.2433 111.631 36.3519Z" fill="#000091"/>
		<path d="M122.465 33.719H123.901V34.4119C124.41 33.8576 125.105 33.4419 126.123 33.4419C127.651 33.4419 128.855 34.5043 128.855 36.5367V40.74H127.42V36.5828C127.42 35.4743 126.818 34.7814 125.799 34.7814C124.827 34.7814 124.271 35.3819 123.901 35.9824V40.6938H122.465V33.719Z" fill="#000091"/>
		<path d="M135.893 33.7191H137.328V37.6452C137.328 39.7238 136.124 41.0172 134.133 41.0172C132.142 41.0172 130.938 39.77 130.938 37.6452V33.7191H132.374V37.7376C132.374 38.9386 133.022 39.6776 134.133 39.6776C135.198 39.6776 135.846 38.9386 135.846 37.7376V33.7191H135.893Z" fill="#000091"/>
		<path d="M139.504 33.719H140.939V34.3657C141.449 33.8114 142.097 33.4419 143.023 33.4419C143.995 33.4419 144.782 33.8576 145.245 34.689C145.801 33.9962 146.495 33.4419 147.699 33.4419C149.181 33.4419 150.292 34.4581 150.292 36.3981V40.74H148.857V36.4443C148.857 35.4281 148.301 34.7814 147.375 34.7814C146.542 34.7814 145.986 35.2895 145.616 35.9824C145.616 36.1209 145.616 36.2133 145.616 36.3519V40.6938H144.18V36.3981C144.18 35.3819 143.625 34.7352 142.699 34.7352C141.819 34.7352 141.263 35.3357 140.939 35.9362V40.6476H139.504V33.719Z" fill="#000091"/>
		<path d="M155.848 41.0172C153.441 41.0172 152.005 39.2619 152.005 37.2295C152.005 35.151 153.348 33.4419 155.57 33.4419C157.515 33.4419 158.765 34.7352 158.765 36.5367C158.765 36.86 158.719 37.1833 158.673 37.4143H153.487C153.579 38.9386 154.505 39.7238 155.848 39.7238C156.682 39.7238 157.422 39.3543 157.839 38.7538L158.904 39.5852C158.209 40.4629 157.145 41.0172 155.848 41.0172ZM153.533 36.3519H157.33C157.283 35.4743 156.635 34.6891 155.57 34.6891C154.505 34.6429 153.765 35.2433 153.533 36.3519ZM154.922 32.6105L156.357 30.301H157.932L156.265 32.6105H154.922Z" fill="#000091"/>
		<path d="M160.617 33.7191H162.052V34.5043C162.562 33.95 163.164 33.5805 163.997 33.5805C164.229 33.5805 164.414 33.6267 164.599 33.6729V35.0586C164.368 35.0124 164.136 34.9662 163.858 34.9662C162.979 34.9662 162.377 35.4281 162.006 36.0286V40.6938H160.571V33.7191H160.617Z" fill="#000091"/>
		<path d="M165.988 31.1786C165.988 30.6705 166.451 30.2086 166.96 30.2086C167.47 30.2086 167.933 30.6705 167.933 31.1786C167.933 31.6867 167.47 32.1486 166.96 32.1486C166.405 32.1947 165.988 31.7328 165.988 31.1786ZM166.22 33.719H167.655V40.74H166.22V33.719Z" fill="#000091"/>
		<path d="M173.026 33.4419C174.044 33.4419 174.785 33.8114 175.387 34.4581V33.719H176.869V44.1581H175.387V40.0009C174.785 40.6476 174.044 41.0171 173.026 41.0171C170.803 41.0171 169.461 39.2619 169.461 37.2295C169.461 35.1971 170.803 33.4419 173.026 33.4419ZM173.211 39.6776C174.137 39.6776 174.924 39.2619 175.387 38.5228V35.9824C174.878 35.1971 174.091 34.8276 173.211 34.8276C171.868 34.8276 170.942 35.89 170.942 37.2757C170.942 38.6614 171.868 39.6776 173.211 39.6776Z" fill="#000091"/>
		<path d="M183.953 33.7191H185.388V37.6452C185.388 39.7238 184.184 41.0172 182.193 41.0172C180.202 41.0172 178.999 39.77 178.999 37.6452V33.7191H180.434V37.7376C180.434 38.9386 181.082 39.6776 182.193 39.6776C183.258 39.6776 183.906 38.9386 183.906 37.7376V33.7191H183.953Z" fill="#000091"/>
		<path d="M190.898 41.0171C188.49 41.0171 187.055 39.2619 187.055 37.2295C187.055 35.1509 188.398 33.4419 190.62 33.4419C192.565 33.4419 193.815 34.7352 193.815 36.5367C193.815 36.86 193.769 37.1833 193.722 37.4143H188.537C188.629 38.9386 189.555 39.7238 190.898 39.7238C191.731 39.7238 192.472 39.3543 192.889 38.7538L193.954 39.5852C193.259 40.4628 192.194 41.0171 190.898 41.0171ZM188.583 36.3519H192.38C192.333 35.4743 191.685 34.689 190.62 34.689C189.509 34.6428 188.814 35.2433 188.583 36.3519Z" fill="#000091"/>
		<path d="M70.3771 56.5833C70.3771 55.4286 71.2568 54.6895 72.8773 54.4124L75.5165 53.9505L75.6091 53.3962C75.8406 52.1952 75.1924 51.5947 74.0811 51.5947C73.2477 51.5947 72.4606 52.0105 71.8587 52.6571L71.2568 52.149C71.9513 51.3638 72.9236 50.8095 74.1274 50.8095C75.8406 50.8095 76.7666 51.8719 76.4425 53.4886L75.6091 58.1076H74.822L75.0072 57.1838C74.3589 57.9228 73.5718 58.2924 72.5532 58.2924C71.2105 58.2924 70.3771 57.6457 70.3771 56.5833ZM72.5995 57.5995C73.6644 57.5995 74.4515 57.0914 75.0998 56.26L75.3776 54.5971L73.0162 55.0128C71.8124 55.1976 71.2105 55.7057 71.2105 56.4909C71.2105 57.1376 71.7198 57.5995 72.5995 57.5995Z" fill="#000091"/>
		<path d="M79.3131 51.0867H80.1465L80.0076 51.9643C80.7021 51.2252 81.4429 50.8095 82.369 50.8095C83.4339 50.8095 84.2673 51.3176 84.4988 52.3338C85.2859 51.3638 86.1656 50.8095 87.1842 50.8095C88.7122 50.8095 89.6845 51.8719 89.3141 53.7657L88.5269 58.1076H87.7398L88.4807 53.8119C88.7585 52.38 88.1102 51.5947 86.999 51.5947C86.073 51.5947 85.2396 52.149 84.5451 53.1652C84.5451 53.35 84.4988 53.5809 84.4525 53.7657L83.6654 58.1076H82.832L83.6191 53.8119C83.8506 52.38 83.2024 51.5947 82.0912 51.5947C81.1651 51.5947 80.378 52.1028 79.7298 53.0267L78.8501 58.1076H78.063L79.3131 51.0867Z" fill="#000091"/>
		<path d="M94.7313 58.3848C93.5738 58.3848 92.6478 57.8767 92.0922 57.0452L91.907 58.1076H91.0735L92.9256 47.6686H93.7127L92.9719 51.8257C93.6664 51.1329 94.5461 50.8095 95.4258 50.8095C97.4631 50.8095 98.6669 52.1952 98.6669 54.0891C98.7132 56.4448 97.0926 58.3848 94.7313 58.3848ZM92.7867 52.9343L92.2311 56.0291C92.6941 56.9991 93.5275 57.5995 94.685 57.5995C96.4907 57.5995 97.7872 56.0752 97.7872 54.0891C97.7872 52.6572 96.8611 51.5948 95.2869 51.5948C94.3609 51.5948 93.4349 52.0105 92.7867 52.9343Z" fill="#000091"/>
		<path d="M99.778 56.5833C99.778 55.4286 100.658 54.6895 102.278 54.4124L104.917 53.9505L105.01 53.3962C105.242 52.1952 104.593 51.5947 103.482 51.5947C102.649 51.5947 101.862 52.0105 101.26 52.6571L100.658 52.149C101.352 51.3638 102.325 50.8095 103.528 50.8095C105.242 50.8095 106.168 51.8719 105.843 53.4886L105.01 58.1076H104.177L104.362 57.1838C103.714 57.9228 102.926 58.2924 101.908 58.2924C100.658 58.2924 99.778 57.6457 99.778 56.5833ZM102.047 57.5995C103.112 57.5995 103.899 57.0914 104.547 56.26L104.825 54.5971L102.463 55.0128C101.26 55.1976 100.658 55.7057 100.658 56.4909C100.658 57.1376 101.167 57.5995 102.047 57.5995Z" fill="#000091"/>
		<path d="M111.677 56.26C111.677 57.3686 110.751 58.3848 109.362 58.3848C108.344 58.3848 107.418 57.9228 106.908 57.0452L107.557 56.5833C108.02 57.3224 108.668 57.6457 109.409 57.6457C110.288 57.6457 110.89 57.0452 110.89 56.26C110.89 54.6895 108.066 54.8743 108.066 52.7957C108.066 51.6871 109.038 50.8095 110.335 50.8095C111.307 50.8095 112.094 51.3638 112.464 52.0567L111.816 52.4724C111.538 51.8719 111.029 51.5024 110.335 51.5024C109.501 51.5024 108.899 52.1028 108.899 52.7495C108.853 54.3662 111.677 54.1814 111.677 56.26Z" fill="#000091"/>
		<path d="M117.511 56.26C117.511 57.3686 116.585 58.3848 115.196 58.3848C114.178 58.3848 113.252 57.9228 112.742 57.0452L113.39 56.5833C113.853 57.3224 114.502 57.6457 115.242 57.6457C116.122 57.6457 116.724 57.0452 116.724 56.26C116.724 54.6895 113.9 54.8743 113.9 52.7957C113.9 51.6871 114.872 50.8095 116.169 50.8095C117.141 50.8095 117.928 51.3638 118.298 52.0567L117.65 52.4724C117.372 51.8719 116.863 51.5024 116.169 51.5024C115.335 51.5024 114.733 52.1028 114.733 52.7495C114.687 54.3662 117.511 54.1814 117.511 56.26Z" fill="#000091"/>
		<path d="M119.039 56.5833C119.039 55.4286 119.919 54.6895 121.539 54.4124L124.179 53.9505L124.271 53.3962C124.503 52.1952 123.854 51.5947 122.743 51.5947C121.91 51.5947 121.123 52.0105 120.521 52.6571L119.919 52.149C120.613 51.3638 121.586 50.8095 122.79 50.8095C124.503 50.8095 125.429 51.8719 125.105 53.4886L124.271 58.1076H123.484L123.669 57.1838C123.021 57.9228 122.234 58.2924 121.215 58.2924C119.919 58.2924 119.039 57.6457 119.039 56.5833ZM121.262 57.5995C122.327 57.5995 123.114 57.0914 123.762 56.26L124.04 54.5971L121.678 55.0128C120.475 55.1976 119.873 55.7057 119.873 56.4909C119.919 57.1376 120.428 57.5995 121.262 57.5995Z" fill="#000091"/>
		<path d="M130.661 50.8095C131.818 50.8095 132.79 51.3176 133.346 52.1952L134.133 47.6686H134.92L133.068 58.1076H132.235L132.374 57.3224C131.679 58.0153 130.8 58.3848 129.874 58.3848C127.836 58.3848 126.679 56.9991 126.679 55.1052C126.679 52.7495 128.346 50.8095 130.661 50.8095ZM130.059 57.5995C130.985 57.5995 131.911 57.1838 132.559 56.3062L133.115 53.2114C132.698 52.2414 131.818 51.5948 130.661 51.5948C128.855 51.5948 127.512 53.1191 127.512 55.1052C127.558 56.5372 128.531 57.5995 130.059 57.5995Z" fill="#000091"/>
		<path d="M143.069 54.1814C143.069 56.3986 141.356 58.431 138.948 58.431C136.865 58.431 135.615 56.9529 135.615 55.1053C135.615 52.8881 137.328 50.8557 139.782 50.8557C141.865 50.8095 143.069 52.2876 143.069 54.1814ZM142.236 54.1353C142.236 52.7495 141.31 51.5948 139.782 51.5948C137.883 51.5948 136.541 53.2114 136.541 55.0591C136.541 56.4448 137.467 57.5995 138.995 57.5995C140.847 57.5995 142.236 55.9829 142.236 54.1353Z" fill="#000091"/>
		<path d="M145.662 51.0866H146.495L146.31 52.149C146.958 51.41 147.607 50.9481 148.533 50.9481C148.764 50.9481 148.996 50.9481 149.181 51.0404L149.042 51.8257C148.857 51.7795 148.672 51.7333 148.44 51.7333C147.514 51.7333 146.82 52.2414 146.171 53.1652L145.292 58.1076H144.458L145.662 51.0866Z" fill="#000091"/>
		<path d="M72.1365 66.7915L72.3217 65.7753C72.5995 64.1124 73.6181 63.3734 74.8219 63.3734C75.5165 63.3734 76.0258 63.6043 76.3499 63.8353L75.8869 64.4819C75.609 64.251 75.2386 64.1124 74.8219 64.1124C74.0348 64.1124 73.3403 64.6205 73.1551 65.7753L72.9699 66.7915H75.5165L75.3775 67.5305H72.831L71.7198 73.8124H70.8864L71.9976 67.5305H70.7012L70.8401 66.7915H72.1365Z" fill="#000091"/>
		<path d="M82.6004 69.8862C82.6004 72.1033 80.8873 74.1357 78.4796 74.1357C76.3961 74.1357 75.146 72.6576 75.146 70.81C75.146 68.5928 76.8591 66.5604 79.3131 66.5604C81.3966 66.5143 82.6004 67.9923 82.6004 69.8862ZM81.767 69.84C81.767 68.4542 80.841 67.2995 79.3131 67.2995C77.4147 67.2995 76.072 68.9162 76.072 70.7638C76.072 72.1495 76.998 73.3042 78.526 73.3042C80.378 73.3042 81.767 71.6876 81.767 69.84Z" fill="#000091"/>
		<path d="M85.1933 66.7914H86.0267L85.8415 67.8538C86.4897 67.1147 87.138 66.6528 88.064 66.6528C88.2955 66.6528 88.527 66.6528 88.7122 66.7452L88.5733 67.5304C88.3881 67.4843 88.2029 67.4381 87.9714 67.4381C87.0454 67.4381 86.3508 67.9462 85.7026 68.87L84.8229 73.8124H83.9895L85.1933 66.7914Z" fill="#000091"/>
		<path d="M96.8611 66.5143C98.0186 66.5143 98.991 67.0224 99.5466 67.9L100.334 63.3734H101.121L99.2688 73.8124H98.4354L98.5743 73.0272C97.8797 73.72 97 74.0895 96.074 74.0895C94.0368 74.0895 92.8793 72.7038 92.8793 70.81C92.9256 68.4543 94.5461 66.5143 96.8611 66.5143ZM96.3055 73.3043C97.2315 73.3043 98.1575 72.8886 98.8058 72.011L99.3614 68.9162C98.9447 67.9462 98.0649 67.2995 96.9074 67.2995C95.1017 67.2995 93.759 68.8238 93.759 70.81C93.8053 72.2419 94.7313 73.3043 96.3055 73.3043Z" fill="#000091"/>
		<path d="M103.158 66.7915H103.991L102.741 73.8124H101.954L103.158 66.7915ZM103.482 63.9738C103.482 63.6505 103.76 63.3734 104.13 63.3734C104.501 63.3734 104.779 63.6505 104.779 63.9738C104.779 64.3434 104.501 64.6205 104.13 64.6205C103.76 64.5743 103.482 64.3434 103.482 63.9738Z" fill="#000091"/>
		<path d="M105.797 73.2581C105.519 73.0733 105.38 72.75 105.38 72.4267C105.38 71.78 105.89 71.2719 106.584 70.9486C106.121 70.5329 105.843 69.9324 105.843 69.2857C105.843 67.9 106.862 66.5605 108.76 66.5605C109.223 66.5605 109.64 66.6529 110.01 66.8376H112.696L112.557 67.5767H110.751C110.983 67.9462 111.122 68.3619 111.122 68.7776C111.122 70.1633 110.057 71.5491 108.251 71.5491C107.834 71.5491 107.418 71.4567 107.094 71.3181C106.492 71.5952 106.168 71.9648 106.168 72.3343C106.168 72.6114 106.306 72.7962 106.723 72.7962H108.668C110.381 72.7962 111.122 73.6276 111.122 74.7362C111.122 76.1681 109.779 77.3691 107.418 77.3691C105.288 77.3691 104.315 76.5838 104.315 75.4291C104.315 74.5052 104.871 73.7662 105.797 73.2581ZM107.418 76.5838C109.316 76.5838 110.242 75.7986 110.242 74.7362C110.242 74.0895 109.872 73.5352 108.621 73.5352H106.538C105.612 73.951 105.149 74.69 105.149 75.2443C105.195 76.0295 105.843 76.5838 107.418 76.5838ZM108.714 67.2071C107.325 67.2071 106.631 68.2233 106.631 69.2395C106.631 70.071 107.186 70.81 108.205 70.81C109.547 70.81 110.288 69.7938 110.288 68.7776C110.288 67.9 109.733 67.2071 108.714 67.2071Z" fill="#000091"/>
		<path d="M114.039 66.7915H114.872L113.622 73.8124H112.835L114.039 66.7915ZM114.317 63.9738C114.317 63.6505 114.594 63.3734 114.965 63.3734C115.335 63.3734 115.613 63.6505 115.613 63.9738C115.613 64.3434 115.335 64.6205 114.965 64.6205C114.594 64.5743 114.317 64.3434 114.317 63.9738Z" fill="#000091"/>
		<path d="M117.789 67.5305H116.493L116.632 66.7914H117.928L118.252 65.0362H119.085L118.761 66.7914H121.308L121.169 67.5305H118.622L117.928 71.5029C117.696 72.8886 118.252 73.1657 119.132 73.1657C119.548 73.1657 119.873 73.0733 120.197 72.9809L120.058 73.72C119.734 73.8586 119.41 73.9048 118.993 73.9048C117.604 73.9048 116.77 73.2581 117.095 71.4105L117.789 67.5305Z" fill="#000091"/>
		<path d="M121.771 72.2881C121.771 71.1333 122.651 70.3943 124.271 70.1171L126.91 69.6552L127.003 69.1009C127.234 67.9 126.586 67.2995 125.475 67.2995C124.642 67.2995 123.854 67.7152 123.253 68.3619L122.651 67.8538C123.345 67.0686 124.317 66.5143 125.521 66.5143C127.234 66.5143 128.16 67.5767 127.836 69.1933L127.003 73.8124H126.216L126.401 72.8886C125.753 73.6276 124.966 73.9971 123.947 73.9971C122.604 73.9971 121.771 73.3505 121.771 72.2881ZM123.993 73.3043C125.058 73.3043 125.845 72.7962 126.494 71.9648L126.771 70.3019L124.41 70.7176C123.206 70.9024 122.604 71.4105 122.604 72.1957C122.604 72.8424 123.114 73.3043 123.993 73.3043Z" fill="#000091"/>
		<path d="M131.309 63.3734H132.096L130.244 73.8124H129.457L131.309 63.3734Z" fill="#000091"/>
		<path d="M136.587 72.2881C136.587 71.1333 137.467 70.3943 139.087 70.1171L141.726 69.6552L141.819 69.1009C142.051 67.9 141.402 67.2995 140.291 67.2995C139.458 67.2995 138.671 67.7152 138.069 68.3619L137.467 67.8538C138.161 67.0686 139.134 66.5143 140.337 66.5143C142.051 66.5143 142.977 67.5767 142.652 69.1933L141.819 73.8124H141.032L141.217 72.8886C140.569 73.6276 139.782 73.9971 138.763 73.9971C137.421 73.9971 136.587 73.3505 136.587 72.2881ZM138.81 73.3043C139.874 73.3043 140.662 72.7962 141.31 71.9648L141.588 70.3019L139.226 70.7176C138.022 70.9024 137.421 71.4105 137.421 72.1957C137.421 72.8424 137.93 73.3043 138.81 73.3043Z" fill="#000091"/>
		<path d="M145.894 66.7915L146.079 65.7753C146.357 64.1124 147.375 63.3734 148.579 63.3734C149.274 63.3734 149.783 63.6043 150.107 63.8353L149.644 64.4819C149.366 64.251 148.996 64.1124 148.579 64.1124C147.792 64.1124 147.097 64.6205 146.912 65.7753L146.727 66.7915H149.274L149.135 67.5305H146.588L145.477 73.8124H144.643L145.755 67.5305H144.458L144.597 66.7915H145.894Z" fill="#000091"/>
		<path d="M151.264 66.7915L151.45 65.7753C151.727 64.1124 152.746 63.3734 153.95 63.3734C154.644 63.3734 155.154 63.6043 155.478 63.8353L155.015 64.4819C154.737 64.251 154.367 64.1124 153.95 64.1124C153.163 64.1124 152.468 64.6205 152.283 65.7753L152.098 66.7915H154.644L154.505 67.5305H151.959L150.848 73.8124H150.014L151.126 67.5305H149.829L149.968 66.7915H151.264Z" fill="#000091"/>
		<path d="M154.274 72.2881C154.274 71.1333 155.154 70.3943 156.774 70.1171L159.413 69.6552L159.506 69.1009C159.738 67.9 159.089 67.2995 157.978 67.2995C157.145 67.2995 156.358 67.7152 155.756 68.3619L155.154 67.8538C155.848 67.0686 156.821 66.5143 158.024 66.5143C159.738 66.5143 160.664 67.5767 160.339 69.1933L159.506 73.8124H158.719L158.904 72.8886C158.256 73.6276 157.469 73.9971 156.45 73.9971C155.107 73.9971 154.274 73.3505 154.274 72.2881ZM156.496 73.3043C157.561 73.3043 158.348 72.7962 158.997 71.9648L159.275 70.3019L156.913 70.7176C155.709 70.9024 155.107 71.4105 155.107 72.1957C155.107 72.8424 155.617 73.3043 156.496 73.3043Z" fill="#000091"/>
		<path d="M163.21 66.7915H164.043L162.793 73.8124H162.006L163.21 66.7915ZM163.488 63.9738C163.488 63.6505 163.766 63.3734 164.136 63.3734C164.506 63.3734 164.784 63.6505 164.784 63.9738C164.784 64.3434 164.506 64.6205 164.136 64.6205C163.766 64.5743 163.488 64.3434 163.488 63.9738Z" fill="#000091"/>
		<path d="M166.729 66.7914H167.562L167.377 67.8538C168.025 67.1147 168.673 66.6528 169.599 66.6528C169.831 66.6528 170.063 66.6528 170.248 66.7452L170.109 67.5304C169.924 67.4843 169.738 67.4381 169.507 67.4381C168.581 67.4381 167.886 67.9462 167.238 68.87L166.358 73.8124H165.525L166.729 66.7914Z" fill="#000091"/>
		<path d="M174.97 71.9648C174.97 73.0733 174.044 74.0895 172.655 74.0895C171.637 74.0895 170.711 73.6276 170.201 72.75L170.85 72.2881C171.313 73.0271 171.961 73.3505 172.702 73.3505C173.581 73.3505 174.183 72.75 174.183 71.9648C174.183 70.3943 171.359 70.579 171.359 68.5005C171.359 67.3919 172.331 66.5143 173.628 66.5143C174.6 66.5143 175.387 67.0686 175.758 67.7614L175.109 68.1771C174.831 67.5767 174.322 67.2071 173.628 67.2071C172.794 67.2071 172.192 67.8076 172.192 68.4543C172.1 70.0709 174.97 69.8862 174.97 71.9648Z" fill="#000091"/>
	</g>
</svg>
